     <svg
            height="200"
            class=""
            xmlns="http://www.w3.org/2000/svg"
            viewBox="0 0 97.94 81.9"
          >
            <g class="prefix__DTD" data-name="DTD_logo">
              <g class="prefix__DTD_shape">
                <path
                  class="prefix__DTD_shape-rect"
                  stroke-width="3"
                  stroke="#175043"
                  fill="none"
                  stroke-miterlimit="10"
                  d="M60.9 10.48h4.19v42.64H33.8V10.48h6.15"
                ></path>
                <path
                  fill="#a0b63b"
                  d="M51.45 18.63a20 20 0 011.42-3.56 38 38 0 014-6.34q-.84 1.92-1.65 3.93C54 15.5 53 18.27 52.12 20.94a1.39 1.39 0 01-.7-.55 2.07 2.07 0 01.03-1.76z"
                ></path>
                <path
                  d="M51.29 20.05A13.8 13.8 0 0159 2.3l.77-.3.3.78a.63.63 0 000 .09 13.8 13.8 0 01-7.7 17.75l-.78.32-.3-.78a.63.63 0 000-.11z"
                  stroke="#a0b63b"
                  stroke-width="3"
                  fill="none"
                  stroke-miterlimit="10"
                ></path>
                <path
                  fill="#a0b63b"
                  d="M45.51 16a13.66 13.66 0 00-.51-1.29v-.07a10.15 10.15 0 00-2.33-3.25q.18.29.36.6c.2.36.38.7.53 1l.78 2.01.89 2.22c.15.21.39.54.7.93a15.13 15.13 0 00-.42-2.15z"
                ></path>
                <path
                  d="M45.7 16.64a8.34 8.34 0 00-4.65-10.72l-.47-.19-.18.47a.14.14 0 010 .06A8.34 8.34 0 0045 17l.47.19.18-.48a.17.17 0 01.05-.07z"
                  stroke-width="1.62"
                  stroke="#a0b63b"
                  fill="none"
                  stroke-miterlimit="10"
                ></path>
                <circle cx="59.67" cy="36.18" r="1.34" fill="#175043"></circle>
              </g>
              <g class="prefix__DTD_txt">
                <path
                  fill="#175043"
                  d="M8.79 70.8c-.75 0-1.24-.18-1.51-.69a5.49 5.49 0 01-2.9.68A4.15 4.15 0 010 66.49a4.06 4.06 0 014.26-4.27 5.79 5.79 0 013 .8c0 .2.07-3 .07-3.48s0-1-.25-1.14-1.28 0-1.22-.38 1-.75 1.76-.73 1.64.15 1.64 1v8.47a10.39 10.39 0 00.17 2.84c.23.42 1 0 1.09.44s-.9.76-1.73.76zM7.22 65a3 3 0 00-2.84-1.69C2.8 63.35 2 64.67 2 66.11s1 3.55 2.87 3.55a2.52 2.52 0 002.31-1.24zM14.34 70.79c-1 0-1.55-.33-1.55-1v-5.17c0-.65 0-.94-.26-1.2s-1.27 0-1.16-.45 1-.71 1.76-.7c1.21 0 1.62.3 1.62.91v5a3.08 3.08 0 00.25 1.39c.21.34 1 .12 1.07.4.05.47-.88.82-1.73.82zm-.84-11.37a.93.93 0 011 .89.86.86 0 01-.94.89.93.93 0 01-1-.89.88.88 0 01.94-.89zM21.21 70.8c-2.87-.18-4.36-1.87-4.36-4.32a4.07 4.07 0 014.4-4.24 3.77 3.77 0 012.47.83 3.88 3.88 0 011.08 2.51c0 .2 0 .24-.22.28L19.08 67c-.14 0-.12 0-.1.14a3.48 3.48 0 003.52 2.7c1.28 0 2.3-.82 2.44-.5.22.46-.71 1.66-3.73 1.46zm0-7.51a2.21 2.21 0 00-2.3 2.28c0 .09 0 .21.13.2l4.15-.8a2.11 2.11 0 00-2.01-1.68zM30.51 69.79a3.7 3.7 0 001.49-.35 2.71 2.71 0 01.67-.29c.08 0 .13 0 .13.16a.81.81 0 01-.22.37 3.37 3.37 0 01-.94.65 4.08 4.08 0 01-1.88.47 2.58 2.58 0 01-2.05-.67 3.32 3.32 0 01-.71-2.58v-4.18h-1.54c-.19 0-.24-.06-.19-.31a.87.87 0 01.37-.48 3.3 3.3 0 011.36-.23v-.46c0-.65 1.13-.91 1.6-1s.4.07.4.22v1.23h3.88c.23 0 .3 0 .2.24a1.25 1.25 0 01-.51.51 2.24 2.24 0 01-1 .26H29v4.16c0 1.49.24 2.28 1.51 2.28zM42.74 69.79a3.73 3.73 0 001.53-.35 2.42 2.42 0 01.67-.29c.07 0 .13 0 .13.16s-.17.31-.22.37a3.27 3.27 0 01-1 .65 4 4 0 01-1.85.47 2.62 2.62 0 01-2-.67 3.37 3.37 0 01-.74-2.58v-4.18h-1.58c-.18 0-.23-.06-.18-.31a.89.89 0 01.36-.48 3.35 3.35 0 011.37-.23v-.46c0-.65 1.13-.91 1.6-1s.4.07.4.22v1.23h3.87c.24 0 .31 0 .2.24a1.25 1.25 0 01-.51.51 2.21 2.21 0 01-1 .26h-2.58v4.16c.02 1.49.25 2.28 1.53 2.28zM50.14 62.24a4.44 4.44 0 014.68 4.29c0 2.69-1.77 4.27-4.51 4.27a4.43 4.43 0 01-4.68-4.27c0-2.69 1.84-4.29 4.51-4.29zm-2.47 3.91c0 1.56 1 3.51 2.8 3.51s2.31-1.33 2.31-2.75c0-1.58-.91-3.47-2.78-3.54-1.58.01-2.33 1.36-2.33 2.78zM68.5 70.8c-.75 0-1.24-.18-1.51-.69a5.45 5.45 0 01-2.89.68 4.15 4.15 0 01-4.39-4.3A4.06 4.06 0 0164 62.22a5.79 5.79 0 013 .8c0 .2.08-3 .08-3.48s-.06-1-.26-1.14-1.27 0-1.22-.38 1-.75 1.77-.73 1.64.15 1.64 1v8.47a10.47 10.47 0 00.16 2.84c.24.42 1 0 1.09.44s-.92.76-1.76.76zM66.94 65a3 3 0 00-2.84-1.69c-1.58 0-2.35 1.32-2.35 2.76s1 3.55 2.88 3.55a2.53 2.53 0 002.31-1.24zM75.34 62.24A4.44 4.44 0 0180 66.53c0 2.69-1.77 4.27-4.51 4.27a4.43 4.43 0 01-4.68-4.27c.02-2.69 1.86-4.29 4.53-4.29zm-2.47 3.91c0 1.56 1 3.51 2.8 3.51S78 68.33 78 66.91c0-1.58-.91-3.47-2.78-3.54-1.6.01-2.35 1.36-2.35 2.78zM85.08 62.24a4.44 4.44 0 014.67 4.29c0 2.69-1.76 4.27-4.51 4.27a4.42 4.42 0 01-4.67-4.27c0-2.69 1.83-4.29 4.51-4.29zm-2.48 3.91c0 1.56 1 3.51 2.8 3.51s2.31-1.33 2.31-2.75c0-1.58-.91-3.47-2.78-3.54-1.58.01-2.33 1.36-2.33 2.78zM97.94 63.57c0 .49-.46 1.14-.78 1.14a.13.13 0 01-.13-.14c0-.64-.69-1.06-1.31-1.06a2.63 2.63 0 00-1.93 1.38 10.74 10.74 0 00-.05 1.31c0 1.24 0 2.35.07 3s.35.69.89.61c.35 0 .42.28.2.49a2 2 0 01-1.58.5c-1 0-1.53-.33-1.53-1v-5.17c0-.44.06-.93-.23-1.22a1.55 1.55 0 00-1-.2c-.2 0-.31-.23-.07-.43a2.13 2.13 0 011.64-.51c1.21 0 1.63.45 1.63 1.2a3.18 3.18 0 012.31-1.29c.81-.02 1.87.4 1.87 1.39z"
                ></path>
              </g>
              <g class="prefix__DTD_slogan">
                <path
                  fill="#a0b63b"
                  d="M32.78 75.5a.29.29 0 01.22-.09.27.27 0 01.21.09.29.29 0 01.08.22v4.22a.28.28 0 01-.08.21.27.27 0 01-.21.09.29.29 0 01-.22-.09.29.29 0 01-.09-.21v-2H30.3v2a.31.31 0 01-.3.3.26.26 0 01-.21-.09.29.29 0 01-.09-.21v-4.22a.29.29 0 01.09-.22.26.26 0 01.21-.09.29.29 0 01.21.09.29.29 0 01.09.22v2h2.39v-2a.29.29 0 01.09-.22zM35.37 80.26a1.51 1.51 0 01-.56-.11 1.51 1.51 0 01-.76-.76 1.48 1.48 0 010-1.12 1.51 1.51 0 01.76-.76 1.48 1.48 0 011.12 0 1.51 1.51 0 01.76.76 1.51 1.51 0 01.11.56.41.41 0 010 .11.28.28 0 010 .09h-2c-.07 0-.1 0-.1-.1s0-.1.1-.1h1.42a1.45 1.45 0 00-.07-.47A1.39 1.39 0 0036 78a1.34 1.34 0 00-.26-.27.62.62 0 00-.32-.09.56.56 0 00-.31.09 1 1 0 00-.26.27 1.17 1.17 0 00-.18.39 1.78 1.78 0 00-.07.47 1.72 1.72 0 00.07.47 1.17 1.17 0 00.18.39 1 1 0 00.26.27.56.56 0 00.31.09 1.22 1.22 0 00.46-.09 1.42 1.42 0 00.38-.26h.08c.03 0 .1 0 .1.11a.09.09 0 010 .08 1.77 1.77 0 01-.45.3 1.42 1.42 0 01-.62.04zM38.8 77.4a1.62 1.62 0 01.44.07 1.52 1.52 0 01.38.2.51.51 0 01.09-.16.29.29 0 01.22-.09.25.25 0 01.2.09.27.27 0 01.1.22v2.21a.26.26 0 01-.1.21.25.25 0 01-.2.09.29.29 0 01-.22-.09.27.27 0 01-.09-.15 1.38 1.38 0 01-.82.26 1.51 1.51 0 01-.56-.11 1.51 1.51 0 01-.76-.76 1.48 1.48 0 010-1.12 1.51 1.51 0 01.76-.76 1.51 1.51 0 01.56-.11zm.82.53a1 1 0 00-.36-.23 1.12 1.12 0 00-.44-.09.62.62 0 00-.32.09 1.34 1.34 0 00-.26.27 1.39 1.39 0 00-.17.39 1.45 1.45 0 00-.07.47 1.72 1.72 0 00.24.86 1.34 1.34 0 00.26.27.62.62 0 00.32.09 1.07 1.07 0 00.43-.09 1.15 1.15 0 00.35-.22zM40.88 75.5a.29.29 0 01.21-.09.31.31 0 01.22.09.29.29 0 01.08.22v4.22a.33.33 0 01-.09.22.29.29 0 01-.21.08.32.32 0 01-.21-.08.33.33 0 01-.09-.22v-4.22a.29.29 0 01.09-.22zM42.05 76.06a.29.29 0 01.09-.22.26.26 0 01.21-.09.31.31 0 01.31.31v1.44h.61c.06 0 .1 0 .1.09a.09.09 0 01-.1.1h-.61v1.15a1.78 1.78 0 00.06.47 1.46 1.46 0 00.17.38.85.85 0 00.25.25.6.6 0 00.31.1c.07 0 .1 0 .1.1a.09.09 0 01-.1.1 1.41 1.41 0 01-.54-.11 1.38 1.38 0 01-.75-.75 1.41 1.41 0 01-.11-.54zM44.16 75.5a.29.29 0 01.21-.09.31.31 0 01.31.31v1.87a1.18 1.18 0 01.28-.12 1.13 1.13 0 01.32 0 1.07 1.07 0 01.47.1 1.22 1.22 0 01.38.26 1.12 1.12 0 01.26.38 1.28 1.28 0 01.09.48v1.3a.28.28 0 01-.08.21.29.29 0 01-.21.09.29.29 0 01-.22-.09.29.29 0 01-.09-.21v-1.3a1.37 1.37 0 00-.18-.72.47.47 0 00-.42-.29.91.91 0 00-.6.2v2.11a.29.29 0 01-.09.21.29.29 0 01-.22.09.31.31 0 01-.3-.3v-4.27a.29.29 0 01.09-.22zM47.64 77.63l.81 2.18.86-2.37a.09.09 0 01.09-.07.09.09 0 01.1.1l-1.28 3.52-.27.74a.11.11 0 01-.1.08.09.09 0 01-.1-.1l.57-1.59a.23.23 0 01-.17.07.27.27 0 01-.28-.19l-.8-2.21a.28.28 0 010-.11.33.33 0 01.08-.22.29.29 0 01.21-.09.28.28 0 01.29.19zM54.26 75.81a1.73 1.73 0 00-.34-.14 1.6 1.6 0 00-.39 0 .85.85 0 00-.64.27 1 1 0 000 1.31.88.88 0 00.64.26c.07 0 .1 0 .1.1s0 .1-.1.1a1.24 1.24 0 00-.47.1 1.42 1.42 0 00-.38.26 1.19 1.19 0 00-.25.38 1.12 1.12 0 00-.1.48 1.1 1.1 0 00.1.47 1.14 1.14 0 00.25.39A1.22 1.22 0 0053 80a1.07 1.07 0 00.47.1 1.63 1.63 0 00.59-.1 1.59 1.59 0 00.48-.26 1.23 1.23 0 00.33-.39 1 1 0 00.12-.47.31.31 0 000-.1h-.2l-.2-.08a1.73 1.73 0 00-.45-.19 1.26 1.26 0 00-.43 0 1.13 1.13 0 00-.38.12.65.65 0 00-.26.26s0 .05-.07.05a.07.07 0 01-.08-.08.43.43 0 010-.05 1.45 1.45 0 01.37-.41 1.53 1.53 0 01.48-.23 1.3 1.3 0 01.52 0 1.24 1.24 0 01.52.18 1.88 1.88 0 00.3.12.84.84 0 00.47 0 .5.5 0 00.32-.22h.06c.06 0 .08 0 .08.07a1.1 1.1 0 01-.35.36 1.17 1.17 0 01-.46.17v.09a1.15 1.15 0 01-.14.55 1.4 1.4 0 01-.38.46 1.72 1.72 0 01-.57.3 1.92 1.92 0 01-.69.11 2 2 0 01-.7-.11 1.94 1.94 0 01-.57-.3 1.4 1.4 0 01-.38-.46 1.15 1.15 0 01-.14-.55 1.17 1.17 0 01.32-.81 1.82 1.82 0 01.83-.52 1.29 1.29 0 01-.62-.4.9.9 0 01-.23-.61.92.92 0 01.11-.43 1.22 1.22 0 01.32-.36 1.8 1.8 0 01.48-.24 1.85 1.85 0 01.58-.09 2.12 2.12 0 01.44 0 1.77 1.77 0 01.38.15.08.08 0 01.06.09c.03.05 0 .09-.07.09zM58.38 75.5a.29.29 0 01.21-.09H61a.1.1 0 010 .2h-2.11v2.12h1.65c.06 0 .09 0 .09.1s0 .1-.09.1h-1.65v2a.29.29 0 01-.09.21.27.27 0 01-.21.09.31.31 0 01-.3-.3v-4.21a.29.29 0 01.09-.22zM61.76 77.73v-.1a.35.35 0 01.08-.12.33.33 0 01.21-.08.25.25 0 01.22.08.4.4 0 01.09.17 1.43 1.43 0 01.37-.19 1.56 1.56 0 01.44-.07h.17a.13.13 0 01.1 0 .11.11 0 010 .15h-.26a.59.59 0 00-.37.12 1.08 1.08 0 00-.26.3 1.93 1.93 0 00-.15.4 1.69 1.69 0 000 .38v1.08a.17.17 0 010 .08.32.32 0 01-.29.25.28.28 0 01-.23-.1.35.35 0 01-.07-.23zM65.49 80.26a1.51 1.51 0 01-.56-.11 1.51 1.51 0 01-.76-.76 1.48 1.48 0 010-1.12 1.51 1.51 0 01.76-.76 1.48 1.48 0 011.12 0 1.51 1.51 0 01.76.76 1.51 1.51 0 01.11.56.41.41 0 010 .11.28.28 0 010 .09h-2c-.07 0-.1 0-.1-.1s0-.1.1-.1h1.42a1.45 1.45 0 00-.07-.47 1.39 1.39 0 00-.17-.39 1.34 1.34 0 00-.26-.27.62.62 0 00-.32-.09.56.56 0 00-.31.09 1 1 0 00-.26.27 1.17 1.17 0 00-.18.39 1.78 1.78 0 00-.07.47 1.72 1.72 0 00.07.47 1.17 1.17 0 00.18.39 1 1 0 00.26.27.56.56 0 00.31.09A1.22 1.22 0 0066 80a1.42 1.42 0 00.38-.26h.08c.03 0 .1 0 .1.11a.09.09 0 010 .08 1.77 1.77 0 01-.45.3 1.42 1.42 0 01-.62.03zM69.24 77.75l-.24-.12a1.54 1.54 0 00-.31 0 .57.57 0 00-.47.14.4.4 0 00-.11.12.34.34 0 00-.11.11.43.43 0 00.09.28.94.94 0 00.25.18 2.68 2.68 0 00.34.13 2.32 2.32 0 01.37.13.82.82 0 01.39.37.79.79 0 01.1.49.61.61 0 01-.34.46 1.36 1.36 0 01-.64.18 1.39 1.39 0 01-.65-.09 1.16 1.16 0 01-.27-.14l-.25-.19a.09.09 0 010-.07.09.09 0 01.1-.1.09.09 0 01.06 0l.21.16A.8.8 0 0068 80a.71.71 0 00.22.07h.25a1 1 0 00.25 0 .43.43 0 00.21-.11.33.33 0 00.11-.13.69.69 0 000-.19.36.36 0 00-.1-.27.8.8 0 00-.25-.18 2.2 2.2 0 00-.34-.13l-.35-.15a1.05 1.05 0 01-.38-.27.64.64 0 01-.15-.43.69.69 0 01.11-.39.72.72 0 01.27-.25 1.22 1.22 0 01.38-.13h.41a1.38 1.38 0 01.68.18v.08a.09.09 0 01-.09.1.06.06 0 01.01-.05zM70.22 75.5a.29.29 0 01.21-.09.31.31 0 01.31.31v1.87a1.18 1.18 0 01.28-.12 1.13 1.13 0 01.32 0 1.07 1.07 0 01.47.1 1.22 1.22 0 01.38.26 1.12 1.12 0 01.26.38 1.28 1.28 0 01.09.48v1.3a.28.28 0 01-.08.21.27.27 0 01-.21.09.29.29 0 01-.22-.09.29.29 0 01-.09-.21v-1.3a1.47 1.47 0 00-.17-.72.49.49 0 00-.43-.29.91.91 0 00-.6.2v2.11a.29.29 0 01-.09.21.29.29 0 01-.22.09.31.31 0 01-.3-.3v-4.27a.29.29 0 01.09-.22z"
                ></path>
              </g>
            </g>
          </svg>