 <svg
            style="fill: rgba(23, 80, 67, 0.48)"
            title="Gluten Free"
            width="40"
            class="iconfill Badges_icon__q9qb7"
            viewBox="0 0 503.607 503.607"
            xmlns="http://www.w3.org/2000/svg"
          >
            <path
              d="M251.805 0C112.735 0 0 112.734 0 251.805c0 139.066 112.734 251.8 251.805 251.8 139.066 0 251.8-112.734 251.8-251.8C503.45 112.8 390.805.156 251.805 0zm0 486.82c-129.797 0-235.02-105.222-235.02-235.015 0-129.797 105.223-235.02 235.02-235.02 129.793 0 235.015 105.223 235.015 235.02-.144 129.734-105.28 234.87-235.015 235.015zm0 0"
            ></path>
            <path
              d="M266.258 34.086l-.32-.695c-2.497-5.575-8.032-9.157-14.137-9.157s-11.645 3.582-14.14 9.157l-.388.836A215.124 215.124 0 00110.996 85.3c-.101.078-.137.195-.226.277-.094.086-.204.11-.286.195-.27.34-.511.704-.722 1.082-.356.438-.668.91-.934 1.41a7.93 7.93 0 00-.433 1.528 8.925 8.925 0 00-.305 1.57c.004.528.062 1.055.176 1.57.046.536.148 1.067.304 1.587.215.5.477.976.79 1.425.18.41.398.809.644 1.184.086.094.195.117.277.21.086.09.11.208.203.302l49.52 49.523a101.8 101.8 0 00.46 24.23l-61.96-61.96c-.074-.075-.184-.102-.258-.176-.078-.074-.11-.176-.195-.254a8.701 8.701 0 00-1.207-.68 8.342 8.342 0 00-1.418-.836 8.178 8.178 0 00-1.68-.32 8.22 8.22 0 00-1.418-.102 7.701 7.701 0 00-1.68.329c-.484.082-.957.21-1.418.386-.52.27-1.011.594-1.46.973a7.623 7.623 0 00-1.082.715c-.075.074-.102.183-.176.258-.075.078-.176.109-.254.203-74.078 86.5-69.106 215.441 11.418 295.976 80.523 80.54 209.465 85.531 295.976 11.465.086-.066.118-.176.203-.25.082-.074.176-.094.25-.168a7.82 7.82 0 00.739-1.11c.36-.44.676-.913.941-1.417a7.87 7.87 0 00.41-1.528 7.931 7.931 0 00.313-1.57 8.714 8.714 0 00-.196-1.586 7.965 7.965 0 00-.3-1.57c-.235-.512-.516-1-.84-1.461-.188-.406-.41-.8-.664-1.172-.074-.086-.176-.117-.242-.195-.067-.074-.102-.184-.176-.258l-51.102-51.145a99.571 99.571 0 00.84-22.945l62.215 62.203c.082.082.2.11.293.192.09.086.125.195.219.277.48.355.996.652 1.543.89.265.192.547.364.84.512.949.383 1.964.582 2.988.59a8.375 8.375 0 003.304-.715c.336-.191.653-.406.957-.636a8.024 8.024 0 001.68-1.11c.094-.094.117-.21.203-.3.082-.094.192-.11.266-.204 53.23-62.843 66.523-150.308 34.371-226.129-32.156-75.816-104.273-127.062-186.45-132.48zm14.512 90.203c0 1.387-.196 2.738-.293 4.106a83.093 83.093 0 00-27.29 26.992c-.527.898-.906 1.84-1.382 2.746-.489-.914-.84-1.856-1.395-2.762a83.106 83.106 0 00-27.289-26.984c-.105-1.38-.285-2.805-.285-4.098 0-12.992 10.797-43.36 28.969-81.523 18.16 38.14 28.965 68.53 28.965 81.523zm38.726 247.07a84.156 84.156 0 01-42.262 31.645 12.473 12.473 0 01-10.66-.582 10.063 10.063 0 01-5.117-7.082c-.523-2.93-.934-6.168-1.234-9.543.402-5.309.402-10.64 0-15.95a58.038 58.038 0 017.425-24.257c12.91-21.82 41.801-32.18 55.223-35.957 3.633 12.683 9.266 40.383-3.375 61.726zm-67.828 63.79l-9.574-16.786a29.054 29.054 0 003.164-1.27 27.207 27.207 0 006.547-5.343 27.132 27.132 0 006.547 5.344c.84.472 1.777.68 2.652 1.066zm-70.941-307.114c13.43 3.766 42.296 14.11 55.23 35.914a58.289 58.289 0 017.402 23.973 105.01 105.01 0 000 16.515c-.293 3.266-.695 6.407-1.199 9.235a10.183 10.183 0 01-5.144 7.152 12.26 12.26 0 01-10.207.754l-.54-.219a125.047 125.047 0 00-24.34-12.949 62.342 62.342 0 01-17.792-18.625c-12.66-21.422-7.035-49.101-3.41-61.777zm77.632 107.434c.68.379 1.426.539 2.121.84a69.548 69.548 0 00-7.292 9.93c-.528.906-.907 1.84-1.383 2.753-.48-.914-.84-1.847-1.387-2.746a69.025 69.025 0 00-7.293-9.937c.695-.32 1.441-.477 2.121-.84a27.031 27.031 0 006.559-5.387 27.235 27.235 0 006.554 5.355zm50.66-11.942a142.95 142.95 0 0113.883-4.71c3.668 12.656 9.286 40.288-3.449 61.757a61.236 61.236 0 01-17.887 18.668 128.1 128.1 0 00-24.265 12.903 12.595 12.595 0 01-10.727-.614 10.124 10.124 0 01-5.117-7.066c-.504-2.84-.906-5.977-1.21-9.235a103.06 103.06 0 000-16.507 58.398 58.398 0 017.401-23.989 62.657 62.657 0 0118.41-19.09 108.392 108.392 0 0122.962-12.152zM253.224 337.04c-.547.914-.926 1.871-1.418 2.805-.496-.934-.84-1.89-1.418-2.805a69.885 69.885 0 00-7.297-9.973c.723-.328 1.504-.484 2.207-.879a27.286 27.286 0 006.508-5.304 27.315 27.315 0 006.504 5.312c.703.387 1.484.555 2.207.88a70.312 70.312 0 00-7.293 9.964zm-51.2-37.828a61.282 61.282 0 01-17.914-18.695c-12.656-21.336-7.058-49.043-3.406-61.723a138.82 138.82 0 016.227 1.914c2.36.79 4.925 1.676 7.64 2.785a107.95 107.95 0 0122.996 12.203 62.45 62.45 0 0118.356 19.055 58.247 58.247 0 017.402 23.98c-.43 5.493-.43 11.016 0 16.508-.293 3.266-.695 6.399-1.199 9.235a10.124 10.124 0 01-5.121 7.093 12.394 12.394 0 01-10.23.836l-.512-.207a128.251 128.251 0 00-24.215-12.984zm-21.304 10.414c13.43 3.777 42.312 14.152 55.222 35.957a58.071 58.071 0 017.47 24.273 105.524 105.524 0 000 15.95c-.302 3.355-.716 6.613-1.235 9.535a10.078 10.078 0 01-5.121 7.094 12.472 12.472 0 01-10.66.578 84.163 84.163 0 01-42.258-31.645c-12.668-21.351-7.035-49.05-3.418-61.742zm138.742-119.86a62.176 62.176 0 01-17.793 18.618 124.61 124.61 0 00-24.34 12.945h-.086a12.461 12.461 0 01-10.668-.555 10.188 10.188 0 01-5.144-7.144c-.504-2.836-.907-5.965-1.207-9.23.437-5.5.437-11.024 0-16.52a58.04 58.04 0 017.394-23.953 67.663 67.663 0 0123.746-22.48 8.34 8.34 0 002.676-1.676 134.602 134.602 0 0128.816-11.82c3.649 12.734 9.274 40.413-3.394 61.816zM129.066 92.513a197.946 197.946 0 01100.118-40.774 263.146 263.146 0 00-22.664 67.707 145.978 145.978 0 00-29.727-9.683 8.397 8.397 0 00-9.336 5.101c-1.52 3.973-2.8 8.032-3.844 12.157zM50.36 251.793a200.595 200.595 0 0142.977-123.777l75.437 75.449a8.241 8.241 0 00-1.367 2.176c-.77 1.93-18.86 47.789 2.278 83.414.601 1.03 1.359 2.004 2.03 3.02a8.337 8.337 0 00-4.316 4.413c-.773 1.942-18.851 47.77 2.266 83.426a100.466 100.466 0 0050.621 38.734c1.043.368 2.106.672 3.184.914l19.101 33.442c-107.488-5.055-192.078-93.602-192.21-201.211zM375.582 410.27a200.042 200.042 0 01-114.48 42.546l18.132-32.992c1.387-.3 2.75-.691 4.086-1.176a100.489 100.489 0 0050.621-38.726 67.456 67.456 0 003.786-7.504zm35.57-35.672l-73.214-73.207c-.907-2.786-1.594-4.555-1.731-4.903a8.331 8.331 0 00-4.312-4.422c.66-1 1.41-1.964 2.011-2.988 21.153-35.648 3.067-81.508 2.293-83.437a8.38 8.38 0 00-4.273-4.399c.656-.984 1.394-1.93 1.98-2.937 21.153-35.723 3.067-81.512 2.285-83.442a8.395 8.395 0 00-9.332-5.101 145.934 145.934 0 00-29.73 9.683 263.67 263.67 0 00-22.754-67.816c72.285 8.023 134.605 54.457 162.973 121.426 28.367 66.968 18.363 144.039-26.16 201.543zm0 0"
            ></path>
          </svg>