   <svg
            style="fill: rgba(23, 80, 67, 0.48)"
            xmlns="http://www.w3.org/2000/svg"
            viewBox="0 0 511.997 511.997"
            title="High Fiber"
            width="40"
            class="iconfill Badges_icon__q9qb7"
          >
            <path
              d="M313.985 109.35C303.4 87.08 280.639 72.691 256 72.691c-24.639 0-47.4 14.389-57.984 36.659a7.545 7.545 0 003.575 10.054 7.543 7.543 0 0010.055-3.575c8.098-17.037 25.508-28.046 44.354-28.046s36.256 11.008 44.354 28.046a7.544 7.544 0 0010.055 3.575 7.545 7.545 0 003.576-10.054zM410.072 167.03c-15.331-19.288-40.759-28.155-64.777-22.583a7.544 7.544 0 00-5.646 9.055 7.542 7.542 0 009.055 5.646c18.372-4.257 37.827 2.518 49.554 17.273 11.726 14.754 13.94 35.233 5.641 52.173a7.546 7.546 0 1013.553 6.641c10.848-22.143 7.952-48.914-7.38-68.205zM166.706 144.448c-24.021-5.569-49.447 3.294-64.777 22.583-15.332 19.29-18.228 46.062-7.38 68.205a7.548 7.548 0 0010.097 3.457 7.547 7.547 0 003.457-10.097c-8.3-16.94-6.085-37.419 5.641-52.173 11.726-14.756 31.181-21.529 49.553-17.274a7.544 7.544 0 009.055-5.646 7.544 7.544 0 00-5.646-9.055z"
            ></path>
            <path
              d="M452.793 147.971a79.094 79.094 0 001.062-12.89c0-46.598-40.537-84.509-90.364-84.509-9.267 0-18.361 1.307-27.122 3.891C320.963 26.401 290.159 8.617 256 8.617s-64.963 17.784-80.369 45.846c-8.761-2.584-17.855-3.891-27.122-3.891-16.899 0-33.38 4.39-47.663 12.696a7.548 7.548 0 00-2.73 10.317 7.55 7.55 0 0010.317 2.73c11.981-6.967 25.84-10.65 40.076-10.65 9.76 0 19.283 1.716 28.307 5.098a7.544 7.544 0 009.542-3.993C198.019 40.612 225.354 23.71 256 23.71s57.981 16.902 69.642 43.06a7.546 7.546 0 009.542 3.993c9.024-3.383 18.548-5.098 28.307-5.098 41.505 0 75.272 31.14 75.272 69.417 0 5.429-.702 10.884-2.086 16.214a7.547 7.547 0 005.405 9.201c32.281 8.389 54.826 35.86 54.826 66.802 0 38.276-33.767 69.416-75.272 69.416-1.667 0-3.325.01-4.971.02-9.795.064-18.497.115-26.209-1.834-.062-.017-.12-.044-.183-.06-2.764-.706-5.296-1.65-7.643-2.855-.035-.018-.071-.034-.106-.053a31.98 31.98 0 01-2.017-1.149c-.129-.079-.259-.154-.387-.235a32.12 32.12 0 01-1.763-1.207c-.167-.122-.335-.242-.5-.368a32.795 32.795 0 01-2.114-1.75 36.682 36.682 0 01-1.637-1.557c-.105-.107-.209-.219-.314-.328a40.26 40.26 0 01-1.704-1.878 34.373 34.373 0 00-1.219-1.359c-.136-.145-.275-.288-.413-.43a36.67 36.67 0 00-.908-.9c-.148-.142-.295-.287-.446-.426a35.45 35.45 0 00-1.24-1.092c-.185-.155-.376-.305-.564-.456-.286-.23-.575-.456-.868-.677-.194-.146-.387-.292-.584-.434-.464-.334-.932-.66-1.41-.97-.062-.041-.127-.078-.19-.118a35.98 35.98 0 00-1.491-.901l-.232-.132c-9.781-5.506-22.048-6.288-33.344-1.571-17.702 7.395-35.344 11.899-52.639 13.501-2.653.246-5.294.425-7.903.534l-.131.004a147.617 147.617 0 01-7.737.123l-14.176-.167-.2-.004c-.972-.013-1.946-.041-2.922-.074-.462-.017-.922-.032-1.39-.054-.365-.016-.731-.039-1.096-.058-1.307-.07-2.633-.155-4.007-.265h-.011c-17.472-1.402-35.376-6.034-53.359-13.845-9.468-4.11-19.903-4.215-28.996-.847-.112.036-.225.059-.336.101a36.11 36.11 0 00-3.309 1.468c-.834.415-1.653.857-2.451 1.333l-.09.052a37.313 37.313 0 00-1.758 1.13c-.309.211-.618.422-.921.642a37.41 37.41 0 00-1.823 1.416c-.435.36-.863.729-1.282 1.111-.073.067-.149.129-.221.197a35.278 35.278 0 00-1.798 1.8c-.45.481-.893.972-1.318 1.481l-.039.044a40.46 40.46 0 01-1.521 1.711c-.134.142-.267.287-.402.426-.458.475-.924.929-1.396 1.368-.228.211-.458.412-.688.614-.271.238-.546.467-.822.694-.475.389-.955.762-1.441 1.116-.167.122-.334.244-.502.362-.716.501-1.441.969-2.179 1.399l-.008.005c-.388.226-.779.442-1.173.65-.109.057-.221.111-.331.167a32.321 32.321 0 01-2.849 1.291 38.072 38.072 0 01-2.76.972c-8.034 2.471-17.22 2.414-27.657 2.345-1.711-.011-3.434-.023-5.17-.023-41.505 0-75.272-31.14-75.272-69.416 0-30.942 22.546-58.413 54.826-66.802a7.546 7.546 0 005.405-9.201 64.563 64.563 0 01-2.086-16.214c0-13.124 3.991-25.901 11.542-36.948a7.549 7.549 0 00-1.972-10.489 7.549 7.549 0 00-10.489 1.972c-9.272 13.567-14.173 29.289-14.173 45.464 0 4.304.356 8.617 1.062 12.89C24.007 160.061 0 191.764 0 227.298c0 46.598 40.537 84.508 90.364 84.508 1.702 0 3.393.012 5.069.023 1.63.011 3.262.022 4.899.022 7.503 0 15.039-.236 22.32-1.758 65.163 64.71 72.283 117.066 72.283 136.766v29.336c0 6.128 3.629 14.743 20.916 20.984 11.076 3.999 25.647 6.201 41.029 6.201s29.953-2.202 41.029-6.201c17.288-6.241 20.917-14.856 20.917-20.984v-29.337c0-24.246 8.625-50.655 25.634-78.494a7.545 7.545 0 00-2.505-10.373 7.544 7.544 0 00-10.373 2.505c-18.479 30.242-27.848 59.299-27.848 86.362l.004 29.291c-.149.718-2.655 4.057-12.185 7.264-9.344 3.143-21.657 4.874-34.673 4.874s-25.329-1.731-34.673-4.874c-9.53-3.207-12.035-6.546-12.181-7.219v-29.336c0-59.334-45.421-115.096-71.938-142.584a45.919 45.919 0 005.053-3.459l.146-.114c.466-.369.93-.751 1.391-1.145l.247-.21c.42-.364.837-.74 1.251-1.125.104-.097.21-.191.314-.289.389-.367.775-.748 1.159-1.135.115-.116.232-.228.347-.345.379-.389.755-.793 1.129-1.202.108-.118.218-.23.325-.349.473-.526.943-1.066 1.409-1.625.404-.485.827-.935 1.257-1.37.179-.181.366-.352.551-.526a21.171 21.171 0 011.525-1.305c.136-.105.275-.203.412-.305.345-.251.691-.5 1.052-.731 20.005 18.576 45.599 47.065 61.337 82.452 2.191 4.927 7.234 7.604 12.551 6.66a11.55 11.55 0 009.528-10.613l4.33-64.524c1.012.032 2.014.055 3.012.066l14.175.166c.637.008 1.272.012 1.909.012.602 0 1.206-.018 1.809-.025.559-.007 1.116-.01 1.678-.023 1.419-.03 2.841-.08 4.265-.147l.11-.004 4.327 64.478a11.55 11.55 0 009.524 10.612c5.325.948 10.362-1.731 12.555-6.659 15.508-34.874 40.625-63.051 60.324-81.506.033.024.066.047.098.072.523.385 1.021.802 1.504 1.238.106.096.216.185.32.284a19.755 19.755 0 011.551 1.628 55.355 55.355 0 001.573 1.78c.098.106.199.206.297.311.446.477.893.944 1.345 1.393.084.083.169.162.253.244.484.475.971.937 1.462 1.383l.158.14c.546.491 1.096.964 1.65 1.42l.013.01a46.941 46.941 0 007.624 5.13c-6.544 6.82-14.363 15.493-22.321 25.521a7.546 7.546 0 0011.822 9.382c9.767-12.309 19.32-22.49 26.36-29.53 8.489 1.543 17.285 1.49 25.955 1.435 1.615-.01 3.242-.02 4.879-.02 49.827 0 90.364-37.91 90.364-84.508.003-35.533-24.004-67.236-59.204-79.326zM224.908 353.213c-14.193-27.14-33.208-49.785-50.098-66.669.968.279 1.904.606 2.784.988 17.006 7.385 34.011 12.158 50.762 14.281l-3.448 51.4zm63.944.001l-3.458-51.531c16.401-2.231 33.002-6.83 49.599-13.763a24.5 24.5 0 013.808-1.217c-16.775 16.796-35.768 39.403-49.949 66.511z"
            ></path>
          </svg>