    <svg
              xmlns="http://www.w3.org/2000/svg"
              viewBox="0 0 280 280"
              width="150"
              height="150"
              preserveAspectRatio="xMidYMid meet"
              style="
                width: 100%;
                height: 100%;
                transform: translate3d(0px, 0px, 0px);
                content-visibility: visible;
              "
            >
              <defs>
                <clipPath id="__lottie_element_58">
                  <rect width="280" height="280" x="0" y="0"></rect>
                </clipPath>
              </defs>
              <g clip-path="url(#__lottie_element_58)">
                <g
                  transform="matrix(2,0,0,2,35.37300491333008,55.915382385253906)"
                  opacity="0.07124699999999934"
                  style="display: none"
                >
                  <g
                    opacity="1"
                    transform="matrix(1,0,0,1,6.389999866485596,6.389999866485596)"
                  >
                    <path
                      fill="rgb(141,161,52)"
                      fill-opacity="1"
                      d=" M2.8289999961853027,-2.8289999961853027 C4.390999794006348,-1.2669999599456787 4.390999794006348,1.2669999599456787 2.8289999961853027,2.8289999961853027 C1.2669999599456787,4.390999794006348 -1.2669999599456787,4.390999794006348 -2.8289999961853027,2.8289999961853027 C-4.390999794006348,1.2669999599456787 -4.390999794006348,-1.2669999599456787 -2.8289999961853027,-2.8289999961853027 C-1.2669999599456787,-4.390999794006348 1.2669999599456787,-4.390999794006348 2.8289999961853027,-2.8289999961853027z"
                    ></path>
                    <path
                      stroke-linecap="round"
                      stroke-linejoin="round"
                      fill-opacity="0"
                      stroke="rgb(32,108,91)"
                      stroke-opacity="1"
                      stroke-width="0"
                      d=" M2.8289999961853027,-2.8289999961853027 C4.390999794006348,-1.2669999599456787 4.390999794006348,1.2669999599456787 2.8289999961853027,2.8289999961853027 C1.2669999599456787,4.390999794006348 -1.2669999599456787,4.390999794006348 -2.8289999961853027,2.8289999961853027 C-4.390999794006348,1.2669999599456787 -4.390999794006348,-1.2669999599456787 -2.8289999961853027,-2.8289999961853027 C-1.2669999599456787,-4.390999794006348 1.2669999599456787,-4.390999794006348 2.8289999961853027,-2.8289999961853027z"
                    ></path>
                  </g>
                </g>
                <g
                  style="display: none"
                  transform="matrix(2,0,0,2,36.53607177734375,56.010108947753906)"
                  opacity="0.0929870000000021"
                >
                  <g
                    opacity="1"
                    transform="matrix(1,0,0,1,6.389999866485596,6.389999866485596)"
                  >
                    <path
                      fill="rgb(141,161,52)"
                      fill-opacity="1"
                      d=" M2.8289999961853027,-2.8289999961853027 C4.390999794006348,-1.2669999599456787 4.390999794006348,1.2669999599456787 2.8289999961853027,2.8289999961853027 C1.2669999599456787,4.390999794006348 -1.2669999599456787,4.390999794006348 -2.8289999961853027,2.8289999961853027 C-4.390999794006348,1.2669999599456787 -4.390999794006348,-1.2669999599456787 -2.8289999961853027,-2.8289999961853027 C-1.2669999599456787,-4.390999794006348 1.2669999599456787,-4.390999794006348 2.8289999961853027,-2.8289999961853027z"
                    ></path>
                    <path
                      stroke-linecap="round"
                      stroke-linejoin="round"
                      fill-opacity="0"
                      stroke="rgb(32,108,91)"
                      stroke-opacity="1"
                      stroke-width="0"
                      d=" M2.8289999961853027,-2.8289999961853027 C4.390999794006348,-1.2669999599456787 4.390999794006348,1.2669999599456787 2.8289999961853027,2.8289999961853027 C1.2669999599456787,4.390999794006348 -1.2669999599456787,4.390999794006348 -2.8289999961853027,2.8289999961853027 C-4.390999794006348,1.2669999599456787 -4.390999794006348,-1.2669999599456787 -2.8289999961853027,-2.8289999961853027 C-1.2669999599456787,-4.390999794006348 1.2669999599456787,-4.390999794006348 2.8289999961853027,-2.8289999961853027z"
                    ></path>
                  </g>
                </g>
                <g
                  style="display: none"
                  transform="matrix(2,0,0,2,33.66523742675781,55.80735778808594)"
                  opacity="0.0393670000000013"
                >
                  <g
                    opacity="1"
                    transform="matrix(1,0,0,1,6.389999866485596,6.389999866485596)"
                  >
                    <path
                      fill="rgb(141,161,52)"
                      fill-opacity="1"
                      d=" M2.8289999961853027,-2.8289999961853027 C4.390999794006348,-1.2669999599456787 4.390999794006348,1.2669999599456787 2.8289999961853027,2.8289999961853027 C1.2669999599456787,4.390999794006348 -1.2669999599456787,4.390999794006348 -2.8289999961853027,2.8289999961853027 C-4.390999794006348,1.2669999599456787 -4.390999794006348,-1.2669999599456787 -2.8289999961853027,-2.8289999961853027 C-1.2669999599456787,-4.390999794006348 1.2669999599456787,-4.390999794006348 2.8289999961853027,-2.8289999961853027z"
                    ></path>
                    <path
                      stroke-linecap="round"
                      stroke-linejoin="round"
                      fill-opacity="0"
                      stroke="rgb(32,108,91)"
                      stroke-opacity="1"
                      stroke-width="0"
                      d=" M2.8289999961853027,-2.8289999961853027 C4.390999794006348,-1.2669999599456787 4.390999794006348,1.2669999599456787 2.8289999961853027,2.8289999961853027 C1.2669999599456787,4.390999794006348 -1.2669999599456787,4.390999794006348 -2.8289999961853027,2.8289999961853027 C-4.390999794006348,1.2669999599456787 -4.390999794006348,-1.2669999599456787 -2.8289999961853027,-2.8289999961853027 C-1.2669999599456787,-4.390999794006348 1.2669999599456787,-4.390999794006348 2.8289999961853027,-2.8289999961853027z"
                    ></path>
                  </g>
                </g>
                <g
                  transform="matrix(2,0,0,2,210.64617919921875,42.41228485107422)"
                  opacity="0.08812079999999896"
                  style="display: none"
                >
                  <g opacity="1" transform="matrix(1,0,0,1,4,4)">
                    <path
                      fill="rgb(141,161,52)"
                      fill-opacity="1"
                      d=" M2,0 C2,1.1039999723434448 1.1039999723434448,2 0,2 C-1.1039999723434448,2 -2,1.1039999723434448 -2,0 C-2,-1.1039999723434448 -1.1039999723434448,-2 0,-2 C1.1039999723434448,-2 2,-1.1039999723434448 2,0z"
                    ></path>
                    <path
                      stroke-linecap="round"
                      stroke-linejoin="round"
                      fill-opacity="0"
                      stroke="rgb(32,108,91)"
                      stroke-opacity="1"
                      stroke-width="0"
                      d=" M2,0 C2,1.1039999723434448 1.1039999723434448,2 0,2 C-1.1039999723434448,2 -2,1.1039999723434448 -2,0 C-2,-1.1039999723434448 -1.1039999723434448,-2 0,-2 C1.1039999723434448,-2 2,-1.1039999723434448 2,0z"
                    ></path>
                  </g>
                </g>
                <g
                  style="display: none"
                  transform="matrix(2,0,0,2,213.23379516601562,42.18437576293945)"
                  opacity="0.05216880000000473"
                >
                  <g opacity="1" transform="matrix(1,0,0,1,4,4)">
                    <path
                      fill="rgb(141,161,52)"
                      fill-opacity="1"
                      d=" M2,0 C2,1.1039999723434448 1.1039999723434448,2 0,2 C-1.1039999723434448,2 -2,1.1039999723434448 -2,0 C-2,-1.1039999723434448 -1.1039999723434448,-2 0,-2 C1.1039999723434448,-2 2,-1.1039999723434448 2,0z"
                    ></path>
                    <path
                      stroke-linecap="round"
                      stroke-linejoin="round"
                      fill-opacity="0"
                      stroke="rgb(32,108,91)"
                      stroke-opacity="1"
                      stroke-width="0"
                      d=" M2,0 C2,1.1039999723434448 1.1039999723434448,2 0,2 C-1.1039999723434448,2 -2,1.1039999723434448 -2,0 C-2,-1.1039999723434448 -1.1039999723434448,-2 0,-2 C1.1039999723434448,-2 2,-1.1039999723434448 2,0z"
                    ></path>
                  </g>
                </g>
                <g
                  style="display: none"
                  transform="matrix(2,0,0,2,209.8111114501953,42.23411178588867)"
                  opacity="0.06265840000000508"
                >
                  <g opacity="1" transform="matrix(1,0,0,1,4,4)">
                    <path
                      fill="rgb(141,161,52)"
                      fill-opacity="1"
                      d=" M2,0 C2,1.1039999723434448 1.1039999723434448,2 0,2 C-1.1039999723434448,2 -2,1.1039999723434448 -2,0 C-2,-1.1039999723434448 -1.1039999723434448,-2 0,-2 C1.1039999723434448,-2 2,-1.1039999723434448 2,0z"
                    ></path>
                    <path
                      stroke-linecap="round"
                      stroke-linejoin="round"
                      fill-opacity="0"
                      stroke="rgb(32,108,91)"
                      stroke-opacity="1"
                      stroke-width="0"
                      d=" M2,0 C2,1.1039999723434448 1.1039999723434448,2 0,2 C-1.1039999723434448,2 -2,1.1039999723434448 -2,0 C-2,-1.1039999723434448 -1.1039999723434448,-2 0,-2 C1.1039999723434448,-2 2,-1.1039999723434448 2,0z"
                    ></path>
                  </g>
                </g>
                <g
                  transform="matrix(1.9405914545059204,0.4838438034057617,-0.4838438034057617,1.9405914545059204,-170.92990112304688,48.31280517578125)"
                  opacity="1"
                  style="display: block"
                >
                  <g
                    opacity="1"
                    transform="matrix(1,0,0,1,19.277999877929688,10.038000106811523)"
                  >
                    <path
                      fill="rgb(255,255,255)"
                      fill-opacity="1"
                      d=" M-1.128999948501587,-3.697000026702881 C5.6539998054504395,-4.204999923706055 12.055999755859375,0.006000000052154064 15.300999641418457,4.448999881744385 C15.937000274658203,5.317999839782715 17.277999877929688,4.934000015258789 17.18400001525879,3.8440001010894775 C16.729000091552734,-1.4900000095367432 8.508999824523926,-8.038000106811523 -0.871999979019165,-7.24399995803833 C-10.251999855041504,-6.449999809265137 -17.277999877929688,0.9750000238418579 -16.78700065612793,6.71999979019165 C-16.69300079345703,7.809999942779541 -14.562999725341797,8.038000106811523 -14.145000457763672,7.11299991607666 C-11.902999877929688,2.1500000953674316 -7.794000148773193,-3.197000026702881 -1.128999948501587,-3.697000026702881z"
                    ></path>
                    <path
                      stroke-linecap="butt"
                      stroke-linejoin="miter"
                      fill-opacity="0"
                      stroke-miterlimit="4"
                      stroke="rgb(32,108,91)"
                      stroke-opacity="1"
                      stroke-width="2"
                      d=" M-1.128999948501587,-3.697000026702881 C5.6539998054504395,-4.204999923706055 12.055999755859375,0.006000000052154064 15.300999641418457,4.448999881744385 C15.937000274658203,5.317999839782715 17.277999877929688,4.934000015258789 17.18400001525879,3.8440001010894775 C16.729000091552734,-1.4900000095367432 8.508999824523926,-8.038000106811523 -0.871999979019165,-7.24399995803833 C-10.251999855041504,-6.449999809265137 -17.277999877929688,0.9750000238418579 -16.78700065612793,6.71999979019165 C-16.69300079345703,7.809999942779541 -14.562999725341797,8.038000106811523 -14.145000457763672,7.11299991607666 C-11.902999877929688,2.1500000953674316 -7.794000148773193,-3.197000026702881 -1.128999948501587,-3.697000026702881z"
                    ></path>
                  </g>
                </g>
                <g
                  transform="matrix(1.9405914545059204,0.4838438034057617,-0.4838438034057617,1.9405914545059204,-196.77728271484375,62.31570053100586)"
                  opacity="1"
                  style="display: block"
                >
                  <g
                    opacity="1"
                    transform="matrix(1,0,0,1,32.17300033569336,9.913999557495117)"
                  >
                    <path
                      fill="rgb(255,255,255)"
                      fill-opacity="1"
                      d=" M-29.417999267578125,7.892000198364258 C-29.636999130249023,7.914000034332275 -29.83799934387207,7.756999969482422 -29.850000381469727,7.543000221252441 C-30.17300033569336,1.8329999446868896 -22.884000778198242,-3.5309998989105225 -13.364999771118164,-4.486999988555908 C-13.364999771118164,-4.486999988555908 11.246000289916992,-6.959000110626221 11.246000289916992,-6.959000110626221 C20.76099967956543,-7.914000034332275 29.1200008392334,-4.125 30.134000778198242,1.5119999647140503 C30.17300033569336,1.725000023841858 30.007999420166016,1.9249999523162842 29.785999298095703,1.9470000267028809 C29.785999298095703,1.9470000267028809 -29.417999267578125,7.892000198364258 -29.417999267578125,7.892000198364258z"
                    ></path>
                    <path
                      stroke-linecap="butt"
                      stroke-linejoin="miter"
                      fill-opacity="0"
                      stroke-miterlimit="4"
                      stroke="rgb(32,108,91)"
                      stroke-opacity="1"
                      stroke-width="2"
                      d=" M-29.417999267578125,7.892000198364258 C-29.636999130249023,7.914000034332275 -29.83799934387207,7.756999969482422 -29.850000381469727,7.543000221252441 C-30.17300033569336,1.8329999446868896 -22.884000778198242,-3.5309998989105225 -13.364999771118164,-4.486999988555908 C-13.364999771118164,-4.486999988555908 11.246000289916992,-6.959000110626221 11.246000289916992,-6.959000110626221 C20.76099967956543,-7.914000034332275 29.1200008392334,-4.125 30.134000778198242,1.5119999647140503 C30.17300033569336,1.725000023841858 30.007999420166016,1.9249999523162842 29.785999298095703,1.9470000267028809 C29.785999298095703,1.9470000267028809 -29.417999267578125,7.892000198364258 -29.417999267578125,7.892000198364258z"
                    ></path>
                  </g>
                </g>
                <g
                  transform="matrix(1.9405914545059204,0.4838438034057617,-0.4838438034057617,1.9405914545059204,-187.74334716796875,80.66217803955078)"
                  opacity="1"
                  style="display: block"
                >
                  <g
                    opacity="1"
                    transform="matrix(1,0,0,1,5.355000019073486,3.7920000553131104)"
                  >
                    <path
                      stroke-linecap="round"
                      stroke-linejoin="round"
                      fill-opacity="0"
                      stroke="rgb(141,161,52)"
                      stroke-opacity="1"
                      stroke-width="2"
                      d=" M-3.3550000190734863,1.7920000553131104 C-2.134999990463257,0.6769999861717224 0.014999999664723873,-0.8410000205039978 3.3550000190734863,-1.7920000553131104"
                    ></path>
                  </g>
                </g>
                <g
                  transform="matrix(2,0,0,2,66.44081115722656,25.304534912109375)"
                  opacity="0.005871200000002119"
                  style="display: none"
                >
                  <g opacity="1" transform="matrix(1,0,0,1,4.5,4.5)">
                    <path
                      fill="rgb(141,161,52)"
                      fill-opacity="1"
                      d=" M2.5,0 C2.5,1.38100004196167 1.38100004196167,2.5 0,2.5 C-1.38100004196167,2.5 -2.5,1.38100004196167 -2.5,0 C-2.5,-1.38100004196167 -1.38100004196167,-2.5 0,-2.5 C1.38100004196167,-2.5 2.5,-1.38100004196167 2.5,0z"
                    ></path>
                    <path
                      stroke-linecap="round"
                      stroke-linejoin="round"
                      fill-opacity="0"
                      stroke="rgb(32,108,91)"
                      stroke-opacity="1"
                      stroke-width="0"
                      d=" M2.5,0 C2.5,1.38100004196167 1.38100004196167,2.5 0,2.5 C-1.38100004196167,2.5 -2.5,1.38100004196167 -2.5,0 C-2.5,-1.38100004196167 -1.38100004196167,-2.5 0,-2.5 C1.38100004196167,-2.5 2.5,-1.38100004196167 2.5,0z"
                    ></path>
                  </g>
                </g>
                <g
                  style="display: none"
                  transform="matrix(2,0,0,2,67.4684829711914,25.720415115356445)"
                  opacity="0.02296240000000296"
                >
                  <g opacity="1" transform="matrix(1,0,0,1,4.5,4.5)">
                    <path
                      fill="rgb(141,161,52)"
                      fill-opacity="1"
                      d=" M2.5,0 C2.5,1.38100004196167 1.38100004196167,2.5 0,2.5 C-1.38100004196167,2.5 -2.5,1.38100004196167 -2.5,0 C-2.5,-1.38100004196167 -1.38100004196167,-2.5 0,-2.5 C1.38100004196167,-2.5 2.5,-1.38100004196167 2.5,0z"
                    ></path>
                    <path
                      stroke-linecap="round"
                      stroke-linejoin="round"
                      fill-opacity="0"
                      stroke="rgb(32,108,91)"
                      stroke-opacity="1"
                      stroke-width="0"
                      d=" M2.5,0 C2.5,1.38100004196167 1.38100004196167,2.5 0,2.5 C-1.38100004196167,2.5 -2.5,1.38100004196167 -2.5,0 C-2.5,-1.38100004196167 -1.38100004196167,-2.5 0,-2.5 C1.38100004196167,-2.5 2.5,-1.38100004196167 2.5,0z"
                    ></path>
                  </g>
                </g>
                <g
                  style="display: none"
                  transform="matrix(2,0,0,2,-113.21495819091797,25.98940086364746)"
                  opacity="0.03351920000000064"
                >
                  <g opacity="1" transform="matrix(1,0,0,1,4.5,4.5)">
                    <path
                      fill="rgb(141,161,52)"
                      fill-opacity="1"
                      d=" M2.5,0 C2.5,1.38100004196167 1.38100004196167,2.5 0,2.5 C-1.38100004196167,2.5 -2.5,1.38100004196167 -2.5,0 C-2.5,-1.38100004196167 -1.38100004196167,-2.5 0,-2.5 C1.38100004196167,-2.5 2.5,-1.38100004196167 2.5,0z"
                    ></path>
                    <path
                      stroke-linecap="round"
                      stroke-linejoin="round"
                      fill-opacity="0"
                      stroke="rgb(32,108,91)"
                      stroke-opacity="1"
                      stroke-width="0"
                      d=" M2.5,0 C2.5,1.38100004196167 1.38100004196167,2.5 0,2.5 C-1.38100004196167,2.5 -2.5,1.38100004196167 -2.5,0 C-2.5,-1.38100004196167 -1.38100004196167,-2.5 0,-2.5 C1.38100004196167,-2.5 2.5,-1.38100004196167 2.5,0z"
                    ></path>
                  </g>
                </g>
                <g
                  transform="matrix(2,0,0,2,-199,116.5)"
                  opacity="1"
                  style="display: block"
                >
                  <g opacity="1" transform="matrix(1,0,0,1,32,26)">
                    <path
                      fill="rgb(255,255,255)"
                      fill-opacity="1"
                      d=" M23.84600067138672,24 C23.84600067138672,24 -23.84600067138672,24 -23.84600067138672,24 C-27.231000900268555,24 -30,21.167999267578125 -30,17.704999923706055 C-30,17.704999923706055 -30,-23.606000900268555 -30,-23.606000900268555 C-30,-23.823999404907227 -29.827999114990234,-24 -29.614999771118164,-24 C-29.614999771118164,-24 29.615999221801758,-24 29.615999221801758,-24 C29.827999114990234,-24 30,-23.823999404907227 30,-23.606000900268555 C30,-23.606000900268555 30,17.704999923706055 30,17.704999923706055 C30,21.167999267578125 27.231000900268555,24 23.84600067138672,24z"
                    ></path>
                    <path
                      stroke-linecap="butt"
                      stroke-linejoin="miter"
                      fill-opacity="0"
                      stroke-miterlimit="4"
                      stroke="rgb(32,108,91)"
                      stroke-opacity="1"
                      stroke-width="2"
                      d=" M23.84600067138672,24 C23.84600067138672,24 -23.84600067138672,24 -23.84600067138672,24 C-27.231000900268555,24 -30,21.167999267578125 -30,17.704999923706055 C-30,17.704999923706055 -30,-23.606000900268555 -30,-23.606000900268555 C-30,-23.823999404907227 -29.827999114990234,-24 -29.614999771118164,-24 C-29.614999771118164,-24 29.615999221801758,-24 29.615999221801758,-24 C29.827999114990234,-24 30,-23.823999404907227 30,-23.606000900268555 C30,-23.606000900268555 30,17.704999923706055 30,17.704999923706055 C30,21.167999267578125 27.231000900268555,24 23.84600067138672,24z"
                    ></path>
                  </g>
                </g>
                <g
                  transform="matrix(2,0,0,2,-194.9980010986328,224.5)"
                  opacity="1"
                  style="display: block"
                >
                  <g opacity="1" transform="matrix(1,0,0,1,30,4)">
                    <path
                      stroke-linecap="round"
                      stroke-linejoin="round"
                      fill-opacity="0"
                      stroke="rgb(141,161,52)"
                      stroke-opacity="1"
                      stroke-width="2"
                      d=" M-28,2 C-28,2 -28,-0.19599999487400055 -28,-0.19599999487400055 C-28,-1.1920000314712524 -27.347000122070312,-2 -26.54199981689453,-2 C-26.54199981689453,-2 26.54199981689453,-2 26.54199981689453,-2 C27.347999572753906,-2 28,-1.1920000314712524 28,-0.19599999487400055 C28,-0.19599999487400055 28,2 28,2"
                    ></path>
                  </g>
                </g>
                <g
                  transform="matrix(2,0,0,2,-136.5800018310547,226.5)"
                  opacity="1"
                  style="display: block"
                >
                  <g opacity="1" transform="matrix(1,0,0,1,0,0)">
                    <path
                      stroke-linecap="round"
                      stroke-linejoin="round"
                      fill-opacity="0"
                      stroke="rgb(141,161,52)"
                      stroke-opacity="1"
                      stroke-width="2"
                      d=" M1,5 C1,5 1,1 1,1"
                    ></path>
                  </g>
                </g>
                <g
                  transform="matrix(2,0,0,2,-128.2100067138672,158.2259979248047)"
                  opacity="1"
                  style="display: block"
                >
                  <g
                    opacity="1"
                    transform="matrix(1,0,0,1,19.82900047302246,20.01099967956543)"
                  >
                    <path
                      fill="rgb(141,161,52)"
                      fill-opacity="1"
                      d=" M2.86299991607666,2.7960000038146973 C-2.0139999389648438,3.259000062942505 3.0850000381469727,-9.840999603271484 -3.5260000228881836,-22.68199920654297 C-3.687999963760376,-22.996999740600586 -4.697000026702881,-12.430999755859375 -4.698999881744385,-12.069999694824219 C-4.763999938964844,0.7599999904632568 -16.61400032043457,5.459000110626221 -3.621999979019165,13.59000015258789 C3.9210000038146973,18.31100082397461 12.256999969482422,10.92300033569336 12.395999908447266,4.125999927520752 C12.484999656677246,-0.2409999966621399 11.642000198364258,-3.7300000190734863 8.036999702453613,-6.914999961853027 C7.76800012588501,-7.1529998779296875 7.857999801635742,-3.9079999923706055 7.836999893188477,-3.5429999828338623 C7.7230000495910645,-1.5369999408721924 7.386000156402588,1.9589999914169312 2.86299991607666,2.7960000038146973z"
                    ></path>
                    <path
                      stroke-linecap="butt"
                      stroke-linejoin="miter"
                      fill-opacity="0"
                      stroke-miterlimit="4"
                      stroke="rgb(23,80,67)"
                      stroke-opacity="1"
                      stroke-width="2"
                      d=" M2.86299991607666,2.7960000038146973 C-2.0139999389648438,3.259000062942505 3.0850000381469727,-9.840999603271484 -3.5260000228881836,-22.68199920654297 C-3.687999963760376,-22.996999740600586 -4.697000026702881,-12.430999755859375 -4.698999881744385,-12.069999694824219 C-4.763999938964844,0.7599999904632568 -16.61400032043457,5.459000110626221 -3.621999979019165,13.59000015258789 C3.9210000038146973,18.31100082397461 12.256999969482422,10.92300033569336 12.395999908447266,4.125999927520752 C12.484999656677246,-0.2409999966621399 11.642000198364258,-3.7300000190734863 8.036999702453613,-6.914999961853027 C7.76800012588501,-7.1529998779296875 7.857999801635742,-3.9079999923706055 7.836999893188477,-3.5429999828338623 C7.7230000495910645,-1.5369999408721924 7.386000156402588,1.9589999914169312 2.86299991607666,2.7960000038146973z"
                    ></path>
                  </g>
                </g>
                <g
                  transform="matrix(2,0,0,2,-136.42599487304688,188.22601318359375)"
                  opacity="1"
                  style="display: block"
                >
                  <g
                    opacity="1"
                    transform="matrix(1,0,0,1,13.342000007629395,12.907999992370605)"
                  >
                    <path
                      fill="rgb(141,161,52)"
                      fill-opacity="1"
                      d=" M11.342000007629395,3.305000066757202 C4.685999870300293,10.604000091552734 -3.9010000228881836,5.869999885559082 -4.960000038146973,-0.640999972820282 C-5.4019999504089355,-3.3559999465942383 -4.052000045776367,-7.284999847412109 -1.0119999647140503,-10.628999710083008 C-0.7580000162124634,-10.907999992370605 1.1690000295639038,-12.935999870300293 1.1150000095367432,-12.562000274658203 C0.4350000023841858,-7.833000183105469 2.936000108718872,0.10400000214576721 7.7210001945495605,-4.2230000495910645"
                    ></path>
                    <path
                      stroke-linecap="round"
                      stroke-linejoin="miter"
                      fill-opacity="0"
                      stroke-miterlimit="4"
                      stroke="rgb(23,80,67)"
                      stroke-opacity="1"
                      stroke-width="2"
                      d=" M11.342000007629395,3.305000066757202 C4.685999870300293,10.604000091552734 -3.9010000228881836,5.869999885559082 -4.960000038146973,-0.640999972820282 C-5.4019999504089355,-3.3559999465942383 -4.052000045776367,-7.284999847412109 -1.0119999647140503,-10.628999710083008 C-0.7580000162124634,-10.907999992370605 1.1690000295639038,-12.935999870300293 1.1150000095367432,-12.562000274658203 C0.4350000023841858,-7.833000183105469 2.936000108718872,0.10400000214576721 7.7210001945495605,-4.2230000495910645"
                    ></path>
                  </g>
                </g>
                <g
                  transform="matrix(2,0,0,2,-187.9980010986328,132.5)"
                  opacity="1"
                  style="display: block"
                >
                  <g opacity="1" transform="matrix(1,0,0,1,0,0)">
                    <path
                      stroke-linecap="round"
                      stroke-linejoin="round"
                      fill-opacity="0"
                      stroke="rgb(160,182,59)"
                      stroke-opacity="1"
                      stroke-width="2"
                      d=" M1,1 C1,1 1,27 1,27"
                    ></path>
                  </g>
                </g>
                <g
                  transform="matrix(2,0,0,2,-190.9980010986328,190.5)"
                  opacity="1"
                  style="display: block"
                >
                  <g opacity="1" transform="matrix(1,0,0,1,3.5,5.5)">
                    <path
                      stroke-linecap="round"
                      stroke-linejoin="round"
                      fill-opacity="0"
                      stroke="rgb(160,182,59)"
                      stroke-opacity="1"
                      stroke-width="2"
                      d=" M1.5,3.5 C-0.5,3.5 -1.5,2.5 -1.5,0.5 C-1.5,0.5 -1.5,-3.5 -1.5,-3.5"
                    ></path>
                  </g>
                </g>
                <g
                  transform="matrix(2,0,0,2,-33.74800109863281,53.624000549316406)"
                  opacity="1"
                  style="display: block"
                >
                  <g
                    opacity="1"
                    transform="matrix(1,0,0,1,3.815000057220459,3)"
                  >
                    <path
                      stroke-linecap="round"
                      stroke-linejoin="miter"
                      fill-opacity="0"
                      stroke-miterlimit="4"
                      stroke-dasharray=" 29 18"
                      stroke-dashoffset="113"
                      stroke="rgb(160,182,59)"
                      stroke-opacity="1"
                      stroke-width="2"
                      d=" M1.815000057220459,-1 C-9.878000259399414,4.811999797821045 -2.878000020980835,24.437999725341797 -19.23200035095215,31"
                    ></path>
                  </g>
                </g>
                <g
                  transform="matrix(2,0,0,2,-41.24800109863281,46.124000549316406)"
                  opacity="1"
                  style="display: block"
                >
                  <g
                    opacity="1"
                    transform="matrix(1,0,0,1,3.815000057220459,3)"
                  >
                    <path
                      stroke-linecap="round"
                      stroke-linejoin="miter"
                      fill-opacity="0"
                      stroke-miterlimit="4"
                      stroke-dasharray=" 29 18"
                      stroke-dashoffset="95"
                      stroke="rgb(160,182,59)"
                      stroke-opacity="1"
                      stroke-width="2"
                      d=" M1.815000057220459,-1 C-9.878000259399414,4.811999797821045 -2.878000020980835,24.437999725341797 -19.23200035095215,31"
                    ></path>
                  </g>
                </g>
                <g
                  transform="matrix(2.4615399837493896,0,0,2.4615399837493896,74.90830993652344,3.499980926513672)"
                  opacity="1"
                  style="display: block"
                >
                  <g opacity="1" transform="matrix(1,0,0,1,13,13)">
                    <path
                      fill="rgb(141,161,52)"
                      fill-opacity="1"
                      d=" M0,-11 C-6.074999809265137,-11 -11,-6.074999809265137 -11,0 C-11,6.074999809265137 -6.074999809265137,11 0,11 C6.074999809265137,11 11,6.074999809265137 11,0 C11,-6.074999809265137 6.074999809265137,-11 0,-11z"
                    ></path>
                    <path
                      stroke-linecap="butt"
                      stroke-linejoin="miter"
                      fill-opacity="0"
                      stroke-miterlimit="4"
                      stroke="rgb(141,161,52)"
                      stroke-opacity="1"
                      stroke-width="2"
                      d=" M0,-11 C-6.074999809265137,-11 -11,-6.074999809265137 -11,0 C-11,6.074999809265137 -6.074999809265137,11 0,11 C6.074999809265137,11 11,6.074999809265137 11,0 C11,-6.074999809265137 6.074999809265137,-11 0,-11z"
                    ></path>
                  </g>
                </g>
                <g
                  transform="matrix(1.6410349607467651,0,0,1.6410349607467651,54.33794021606445,20.261322021484375)"
                  opacity="1"
                  style="display: block"
                >
                  <g opacity="1" transform="matrix(1,0,0,1,13,13)">
                    <path
                      fill="rgb(141,161,52)"
                      fill-opacity="1"
                      d=" M0,-11 C-6.074999809265137,-11 -11,-6.074999809265137 -11,0 C-11,6.074999809265137 -6.074999809265137,11 0,11 C6.074999809265137,11 11,6.074999809265137 11,0 C11,-6.074999809265137 6.074999809265137,-11 0,-11z"
                    ></path>
                    <path
                      stroke-linecap="butt"
                      stroke-linejoin="miter"
                      fill-opacity="0"
                      stroke-miterlimit="4"
                      stroke="rgb(141,161,52)"
                      stroke-opacity="1"
                      stroke-width="2"
                      d=" M0,-11 C-6.074999809265137,-11 -11,-6.074999809265137 -11,0 C-11,6.074999809265137 -6.074999809265137,11 0,11 C6.074999809265137,11 11,6.074999809265137 11,0 C11,-6.074999809265137 6.074999809265137,-11 0,-11z"
                    ></path>
                  </g>
                </g>
                <g
                  transform="matrix(1.6410349607467651,0,0,1.6410349607467651,117.57490539550781,20.261322021484375)"
                  opacity="1"
                  style="display: block"
                >
                  <g opacity="1" transform="matrix(1,0,0,1,13,13)">
                    <path
                      fill="rgb(141,161,52)"
                      fill-opacity="1"
                      d=" M0,-11 C-6.074999809265137,-11 -11,-6.074999809265137 -11,0 C-11,6.074999809265137 -6.074999809265137,11 0,11 C6.074999809265137,11 11,6.074999809265137 11,0 C11,-6.074999809265137 6.074999809265137,-11 0,-11z"
                    ></path>
                    <path
                      stroke-linecap="butt"
                      stroke-linejoin="miter"
                      fill-opacity="0"
                      stroke-miterlimit="4"
                      stroke="rgb(141,161,52)"
                      stroke-opacity="1"
                      stroke-width="2"
                      d=" M0,-11 C-6.074999809265137,-11 -11,-6.074999809265137 -11,0 C-11,6.074999809265137 -6.074999809265137,11 0,11 C6.074999809265137,11 11,6.074999809265137 11,0 C11,-6.074999809265137 6.074999809265137,-11 0,-11z"
                    ></path>
                  </g>
                </g>
                <g
                  transform="matrix(0.8205051422119141,0,0,0.8205051422119141,151.86026000976562,33.97559356689453)"
                  opacity="1"
                  style="display: block"
                >
                  <g opacity="1" transform="matrix(1,0,0,1,13,13)">
                    <path
                      fill="rgb(141,161,52)"
                      fill-opacity="1"
                      d=" M0,-11 C-6.074999809265137,-11 -11,-6.074999809265137 -11,0 C-11,6.074999809265137 -6.074999809265137,11 0,11 C6.074999809265137,11 11,6.074999809265137 11,0 C11,-6.074999809265137 6.074999809265137,-11 0,-11z"
                    ></path>
                    <path
                      stroke-linecap="butt"
                      stroke-linejoin="miter"
                      fill-opacity="0"
                      stroke-miterlimit="4"
                      stroke="rgb(141,161,52)"
                      stroke-opacity="1"
                      stroke-width="2"
                      d=" M0,-11 C-6.074999809265137,-11 -11,-6.074999809265137 -11,0 C-11,6.074999809265137 -6.074999809265137,11 0,11 C6.074999809265137,11 11,6.074999809265137 11,0 C11,-6.074999809265137 6.074999809265137,-11 0,-11z"
                    ></path>
                  </g>
                </g>
                <g
                  transform="matrix(1.7215399742126465,0,0,1.7215399742126465,-32.97168731689453,-27.880020141601562)"
                  opacity="1"
                  style="display: block"
                >
                  <g opacity="1" transform="matrix(1,0,0,1,13,13)">
                    <path
                      fill="rgb(141,161,52)"
                      fill-opacity="1"
                      d=" M0,-11 C-6.074999809265137,-11 -11,-6.074999809265137 -11,0 C-11,6.074999809265137 -6.074999809265137,11 0,11 C6.074999809265137,11 11,6.074999809265137 11,0 C11,-6.074999809265137 6.074999809265137,-11 0,-11z"
                    ></path>
                    <path
                      stroke-linecap="butt"
                      stroke-linejoin="miter"
                      fill-opacity="0"
                      stroke-miterlimit="4"
                      stroke="rgb(141,161,52)"
                      stroke-opacity="1"
                      stroke-width="2"
                      d=" M0,-11 C-6.074999809265137,-11 -11,-6.074999809265137 -11,0 C-11,6.074999809265137 -6.074999809265137,11 0,11 C6.074999809265137,11 11,6.074999809265137 11,0 C11,-6.074999809265137 6.074999809265137,-11 0,-11z"
                    ></path>
                  </g>
                </g>
                <g
                  transform="matrix(1.1476991176605225,0,0,1.1476991176605225,-47.35809326171875,-16.157554626464844)"
                  opacity="1"
                  style="display: block"
                >
                  <g opacity="1" transform="matrix(1,0,0,1,13,13)">
                    <path
                      fill="rgb(141,161,52)"
                      fill-opacity="1"
                      d=" M0,-11 C-6.074999809265137,-11 -11,-6.074999809265137 -11,0 C-11,6.074999809265137 -6.074999809265137,11 0,11 C6.074999809265137,11 11,6.074999809265137 11,0 C11,-6.074999809265137 6.074999809265137,-11 0,-11z"
                    ></path>
                    <path
                      stroke-linecap="butt"
                      stroke-linejoin="miter"
                      fill-opacity="0"
                      stroke-miterlimit="4"
                      stroke="rgb(141,161,52)"
                      stroke-opacity="1"
                      stroke-width="2"
                      d=" M0,-11 C-6.074999809265137,-11 -11,-6.074999809265137 -11,0 C-11,6.074999809265137 -6.074999809265137,11 0,11 C6.074999809265137,11 11,6.074999809265137 11,0 C11,-6.074999809265137 6.074999809265137,-11 0,-11z"
                    ></path>
                  </g>
                </g>
                <g
                  transform="matrix(1.1476991176605225,0,0,1.1476991176605225,-3.1317367553710938,-16.157554626464844)"
                  opacity="1"
                  style="display: block"
                >
                  <g opacity="1" transform="matrix(1,0,0,1,13,13)">
                    <path
                      fill="rgb(141,161,52)"
                      fill-opacity="1"
                      d=" M0,-11 C-6.074999809265137,-11 -11,-6.074999809265137 -11,0 C-11,6.074999809265137 -6.074999809265137,11 0,11 C6.074999809265137,11 11,6.074999809265137 11,0 C11,-6.074999809265137 6.074999809265137,-11 0,-11z"
                    ></path>
                    <path
                      stroke-linecap="butt"
                      stroke-linejoin="miter"
                      fill-opacity="0"
                      stroke-miterlimit="4"
                      stroke="rgb(141,161,52)"
                      stroke-opacity="1"
                      stroke-width="2"
                      d=" M0,-11 C-6.074999809265137,-11 -11,-6.074999809265137 -11,0 C-11,6.074999809265137 -6.074999809265137,11 0,11 C6.074999809265137,11 11,6.074999809265137 11,0 C11,-6.074999809265137 6.074999809265137,-11 0,-11z"
                    ></path>
                  </g>
                </g>
                <g
                  transform="matrix(0.5738409161567688,0,0,0.5738409161567688,20.846599578857422,-6.566131591796875)"
                  opacity="1"
                  style="display: block"
                >
                  <g opacity="1" transform="matrix(1,0,0,1,13,13)">
                    <path
                      fill="rgb(141,161,52)"
                      fill-opacity="1"
                      d=" M0,-11 C-6.074999809265137,-11 -11,-6.074999809265137 -11,0 C-11,6.074999809265137 -6.074999809265137,11 0,11 C6.074999809265137,11 11,6.074999809265137 11,0 C11,-6.074999809265137 6.074999809265137,-11 0,-11z"
                    ></path>
                    <path
                      stroke-linecap="butt"
                      stroke-linejoin="miter"
                      fill-opacity="0"
                      stroke-miterlimit="4"
                      stroke="rgb(141,161,52)"
                      stroke-opacity="1"
                      stroke-width="2"
                      d=" M0,-11 C-6.074999809265137,-11 -11,-6.074999809265137 -11,0 C-11,6.074999809265137 -6.074999809265137,11 0,11 C6.074999809265137,11 11,6.074999809265137 11,0 C11,-6.074999809265137 6.074999809265137,-11 0,-11z"
                    ></path>
                  </g>
                </g>
                <g
                  transform="matrix(1.7215399742126465,0,0,1.7215399742126465,205.52830505371094,-21.880020141601562)"
                  opacity="1"
                  style="display: block"
                >
                  <g opacity="1" transform="matrix(1,0,0,1,13,13)">
                    <path
                      fill="rgb(141,161,52)"
                      fill-opacity="1"
                      d=" M0,-11 C-6.074999809265137,-11 -11,-6.074999809265137 -11,0 C-11,6.074999809265137 -6.074999809265137,11 0,11 C6.074999809265137,11 11,6.074999809265137 11,0 C11,-6.074999809265137 6.074999809265137,-11 0,-11z"
                    ></path>
                    <path
                      stroke-linecap="butt"
                      stroke-linejoin="miter"
                      fill-opacity="0"
                      stroke-miterlimit="4"
                      stroke="rgb(141,161,52)"
                      stroke-opacity="1"
                      stroke-width="2"
                      d=" M0,-11 C-6.074999809265137,-11 -11,-6.074999809265137 -11,0 C-11,6.074999809265137 -6.074999809265137,11 0,11 C6.074999809265137,11 11,6.074999809265137 11,0 C11,-6.074999809265137 6.074999809265137,-11 0,-11z"
                    ></path>
                  </g>
                </g>
                <g
                  transform="matrix(1.1476991176605225,0,0,1.1476991176605225,191.14190673828125,-10.157554626464844)"
                  opacity="1"
                  style="display: block"
                >
                  <g opacity="1" transform="matrix(1,0,0,1,13,13)">
                    <path
                      fill="rgb(141,161,52)"
                      fill-opacity="1"
                      d=" M0,-11 C-6.074999809265137,-11 -11,-6.074999809265137 -11,0 C-11,6.074999809265137 -6.074999809265137,11 0,11 C6.074999809265137,11 11,6.074999809265137 11,0 C11,-6.074999809265137 6.074999809265137,-11 0,-11z"
                    ></path>
                    <path
                      stroke-linecap="butt"
                      stroke-linejoin="miter"
                      fill-opacity="0"
                      stroke-miterlimit="4"
                      stroke="rgb(141,161,52)"
                      stroke-opacity="1"
                      stroke-width="2"
                      d=" M0,-11 C-6.074999809265137,-11 -11,-6.074999809265137 -11,0 C-11,6.074999809265137 -6.074999809265137,11 0,11 C6.074999809265137,11 11,6.074999809265137 11,0 C11,-6.074999809265137 6.074999809265137,-11 0,-11z"
                    ></path>
                  </g>
                </g>
                <g
                  transform="matrix(1.1476991176605225,0,0,1.1476991176605225,235.36825561523438,-10.157554626464844)"
                  opacity="1"
                  style="display: block"
                >
                  <g opacity="1" transform="matrix(1,0,0,1,13,13)">
                    <path
                      fill="rgb(141,161,52)"
                      fill-opacity="1"
                      d=" M0,-11 C-6.074999809265137,-11 -11,-6.074999809265137 -11,0 C-11,6.074999809265137 -6.074999809265137,11 0,11 C6.074999809265137,11 11,6.074999809265137 11,0 C11,-6.074999809265137 6.074999809265137,-11 0,-11z"
                    ></path>
                    <path
                      stroke-linecap="butt"
                      stroke-linejoin="miter"
                      fill-opacity="0"
                      stroke-miterlimit="4"
                      stroke="rgb(141,161,52)"
                      stroke-opacity="1"
                      stroke-width="2"
                      d=" M0,-11 C-6.074999809265137,-11 -11,-6.074999809265137 -11,0 C-11,6.074999809265137 -6.074999809265137,11 0,11 C6.074999809265137,11 11,6.074999809265137 11,0 C11,-6.074999809265137 6.074999809265137,-11 0,-11z"
                    ></path>
                  </g>
                </g>
                <g
                  transform="matrix(0.5738409161567688,0,0,0.5738409161567688,259.3465881347656,-0.566131591796875)"
                  opacity="1"
                  style="display: block"
                >
                  <g opacity="1" transform="matrix(1,0,0,1,13,13)">
                    <path
                      fill="rgb(141,161,52)"
                      fill-opacity="1"
                      d=" M0,-11 C-6.074999809265137,-11 -11,-6.074999809265137 -11,0 C-11,6.074999809265137 -6.074999809265137,11 0,11 C6.074999809265137,11 11,6.074999809265137 11,0 C11,-6.074999809265137 6.074999809265137,-11 0,-11z"
                    ></path>
                    <path
                      stroke-linecap="butt"
                      stroke-linejoin="miter"
                      fill-opacity="0"
                      stroke-miterlimit="4"
                      stroke="rgb(141,161,52)"
                      stroke-opacity="1"
                      stroke-width="2"
                      d=" M0,-11 C-6.074999809265137,-11 -11,-6.074999809265137 -11,0 C-11,6.074999809265137 -6.074999809265137,11 0,11 C6.074999809265137,11 11,6.074999809265137 11,0 C11,-6.074999809265137 6.074999809265137,-11 0,-11z"
                    ></path>
                  </g>
                </g>
                <g
                  transform="matrix(2,0,0,2,-207.8330078125,155.5)"
                  opacity="1"
                  style="display: block"
                >
                  <g opacity="1" transform="matrix(1,0,0,1,48.25,1.25)">
                    <path
                      fill="rgb(32,108,91)"
                      fill-opacity="1"
                      d=" M-47,-1 C-47,-1 47,-1 47,-1 C47.553001403808594,-1 48,-0.5529999732971191 48,0 C48,0.5529999732971191 47.553001403808594,1 47,1 C47,1 -47,1 -47,1 C-47.551998138427734,1 -48,0.5529999732971191 -48,0 C-48,-0.5529999732971191 -47.551998138427734,-1 -47,-1z"
                    ></path>
                  </g>
                </g>
                <g
                  transform="matrix(2,0,0,2,-207.8330078125,105.5)"
                  opacity="1"
                  style="display: block"
                >
                  <g opacity="1" transform="matrix(1,0,0,1,48.25,1.25)">
                    <path
                      fill="rgb(32,108,91)"
                      fill-opacity="1"
                      d=" M-47,-1 C-47,-1 47,-1 47,-1 C47.553001403808594,-1 48,-0.5529999732971191 48,0 C48,0.5529999732971191 47.553001403808594,1 47,1 C47,1 -47,1 -47,1 C-47.551998138427734,1 -48,0.5529999732971191 -48,0 C-48,-0.5529999732971191 -47.551998138427734,-1 -47,-1z"
                    ></path>
                  </g>
                </g>
                <g
                  style="display: block"
                  transform="matrix(1.7340939044952393,0,0,2,273.45806884765625,105.5)"
                  opacity="1"
                >
                  <g opacity="1" transform="matrix(1,0,0,1,48.25,1.25)">
                    <path
                      fill="rgb(32,108,91)"
                      fill-opacity="1"
                      d=" M-47,-1 C-47,-1 47,-1 47,-1 C47.553001403808594,-1 48,-0.5529999732971191 48,0 C48,0.5529999732971191 47.553001403808594,1 47,1 C47,1 -47,1 -47,1 C-47.551998138427734,1 -48,0.5529999732971191 -48,0 C-48,-0.5529999732971191 -47.551998138427734,-1 -47,-1z"
                    ></path>
                  </g>
                </g>
                <g
                  transform="matrix(2,0,0,2,35.917999267578125,82.5)"
                  opacity="1"
                  style="display: block"
                >
                  <g opacity="1" transform="matrix(1,0,0,1,31,31)">
                    <path
                      fill="rgb(255,255,255)"
                      fill-opacity="1"
                      d=" M29,29 C29,29 29,-22 29,-22 C29,-25.865999221801758 25.865999221801758,-29 22,-29 C22,-29 -22,-29 -22,-29 C-25.865999221801758,-29 -29,-25.865999221801758 -29,-22 C-29,-22 -29,22 -29,22 C-29,25.865999221801758 -25.865999221801758,29 -22,29 C-22,29 29,29 29,29z"
                    ></path>
                    <path
                      stroke-linecap="butt"
                      stroke-linejoin="miter"
                      fill-opacity="0"
                      stroke-miterlimit="4"
                      stroke="rgb(23,80,67)"
                      stroke-opacity="1"
                      stroke-width="2"
                      d=" M29,29 C29,29 29,-22 29,-22 C29,-25.865999221801758 25.865999221801758,-29 22,-29 C22,-29 -22,-29 -22,-29 C-25.865999221801758,-29 -29,-25.865999221801758 -29,-22 C-29,-22 -29,22 -29,22 C-29,25.865999221801758 -25.865999221801758,29 -22,29 C-22,29 29,29 29,29z"
                    ></path>
                  </g>
                </g>
                <g
                  transform="matrix(2,0,0,2,44.00199890136719,175.5)"
                  opacity="1"
                  style="display: block"
                >
                  <g opacity="1" transform="matrix(1,0,0,1,3.5,5.5)">
                    <path
                      stroke-linecap="round"
                      stroke-linejoin="round"
                      fill-opacity="0"
                      stroke="rgb(141,161,52)"
                      stroke-opacity="1"
                      stroke-width="2"
                      d=" M1.5,3.5 C-0.5,3.5 -1.5,2.5 -1.5,0.5 C-1.5,0.5 -1.5,-8.5 -1.5,-8.5"
                    ></path>
                  </g>
                </g>
                <g
                  transform="matrix(2,0,0,2,45.9379997253418,117.5)"
                  opacity="1"
                  style="display: block"
                >
                  <g opacity="1" transform="matrix(1,0,0,1,0,0)">
                    <path
                      stroke-linecap="round"
                      stroke-linejoin="round"
                      fill-opacity="0"
                      stroke="rgb(141,161,52)"
                      stroke-opacity="1"
                      stroke-width="2"
                      d=" M1,1 C1,1 1,27 1,27"
                    ></path>
                  </g>
                </g>
                <g
                  transform="matrix(2,0,0,2,151.91799926757812,102.5)"
                  opacity="1"
                  style="display: block"
                >
                  <g opacity="1" transform="matrix(1,0,0,1,23,26)">
                    <path
                      fill="rgb(160,182,59)"
                      fill-opacity="1"
                      d=" M-21,-24 C-21,-24 -21,24 -21,24 C-21,24 14,24 14,24 C17.865999221801758,24 21,20.865999221801758 21,17 C21,17 21,6.3979997634887695 21,6.3979997634887695 C21,5.421999931335449 20.79599952697754,4.455999851226807 20.399999618530273,3.562999963760376 C20.399999618530273,3.562999963760376 10.032999992370605,-19.834999084472656 10.032999992370605,-19.834999084472656 C8.911999702453613,-22.367000579833984 6.4029998779296875,-24 3.634000062942505,-24 C3.634000062942505,-24 -21,-24 -21,-24z"
                    ></path>
                    <path
                      stroke-linecap="butt"
                      stroke-linejoin="miter"
                      fill-opacity="0"
                      stroke-miterlimit="4"
                      stroke="rgb(23,80,67)"
                      stroke-opacity="1"
                      stroke-width="2"
                      d=" M-21,-24 C-21,-24 -21,24 -21,24 C-21,24 14,24 14,24 C17.865999221801758,24 21,20.865999221801758 21,17 C21,17 21,6.3979997634887695 21,6.3979997634887695 C21,5.421999931335449 20.79599952697754,4.455999851226807 20.399999618530273,3.562999963760376 C20.399999618530273,3.562999963760376 10.032999992370605,-19.834999084472656 10.032999992370605,-19.834999084472656 C8.911999702453613,-22.367000579833984 6.4029998779296875,-24 3.634000062942505,-24 C3.634000062942505,-24 -21,-24 -21,-24z"
                    ></path>
                  </g>
                </g>
                <g
                  transform="matrix(2,0,0,2,69.91799926757812,176.5)"
                  opacity="1"
                  style="display: block"
                >
                  <g opacity="1" transform="matrix(1,0,0,1,13,13)">
                    <path
                      fill="rgb(255,255,255)"
                      fill-opacity="1"
                      d=" M0,-11 C0,-11 0,-11 0,-11 C6.074999809265137,-11 11,-6.074999809265137 11,0 C11,6.074999809265137 6.074999809265137,11 0,11 C-6.074999809265137,11 -11,6.074999809265137 -11,0 C-11,-6.074999809265137 -6.074999809265137,-11 0,-11z"
                    ></path>
                    <path
                      stroke-linecap="butt"
                      stroke-linejoin="miter"
                      fill-opacity="0"
                      stroke-miterlimit="4"
                      stroke="rgb(23,80,67)"
                      stroke-opacity="1"
                      stroke-width="2"
                      d=" M0,-11 C0,-11 0,-11 0,-11 C6.074999809265137,-11 11,-6.074999809265137 11,0 C11,6.074999809265137 6.074999809265137,11 0,11 C-6.074999809265137,11 -11,6.074999809265137 -11,0 C-11,-6.074999809265137 -6.074999809265137,-11 0,-11z"
                    ></path>
                  </g>
                </g>
                <g
                  transform="matrix(2,0,0,2,169.91799926757812,176.5)"
                  opacity="1"
                  style="display: block"
                >
                  <g opacity="1" transform="matrix(1,0,0,1,13,13)">
                    <path
                      fill="rgb(255,255,255)"
                      fill-opacity="1"
                      d=" M0,-11 C-6.074999809265137,-11 -11,-6.074999809265137 -11,0 C-11,6.074999809265137 -6.074999809265137,11 0,11 C6.074999809265137,11 11,6.074999809265137 11,0 C11,-6.074999809265137 6.074999809265137,-11 0,-11z"
                    ></path>
                    <path
                      stroke-linecap="butt"
                      stroke-linejoin="miter"
                      fill-opacity="0"
                      stroke-miterlimit="4"
                      stroke="rgb(23,80,67)"
                      stroke-opacity="1"
                      stroke-width="2"
                      d=" M0,-11 C-6.074999809265137,-11 -11,-6.074999809265137 -11,0 C-11,6.074999809265137 -6.074999809265137,11 0,11 C6.074999809265137,11 11,6.074999809265137 11,0 C11,-6.074999809265137 6.074999809265137,-11 0,-11z"
                    ></path>
                  </g>
                </g>
                <g
                  transform="matrix(0.6989896297454834,0.7151317596435547,-0.7151317596435547,0.6989896297454834,171.9510040283203,190.59410095214844)"
                  opacity="1"
                  style="display: block"
                >
                  <g
                    opacity="1"
                    transform="matrix(1,0,0,1,-44.097999572753906,63.2859992980957)"
                  >
                    <path
                      fill="rgb(255,255,255)"
                      fill-opacity="1"
                      d=" M-7.409999847412109,6.734000205993652 C-9.027999877929688,4.954999923706055 -10.013999938964844,2.5920000076293945 -10.013999938964844,0 C-10.01449966430664,-5.527002334594727 -5.527002334594727,-10.01449966430664 0,-10.01449966430664 C0,-10.01449966430664 0,-10.01449966430664 0,-10.01449966430664 C5.527002334594727,-10.01449966430664 10.01449966430664,-5.527002334594727 10.01449966430664,0 C10.013999938964844,4.2829999923706055 7.320000171661377,7.941999912261963 3.5339999198913574,9.371999740600586"
                    ></path>
                    <path
                      stroke-linecap="round"
                      stroke-linejoin="miter"
                      fill-opacity="0"
                      stroke-miterlimit="4"
                      stroke="rgb(160,182,59)"
                      stroke-opacity="1"
                      stroke-width="4"
                      d=" M-7.409999847412109,6.734000205993652 C-9.027999877929688,4.954999923706055 -10.013999938964844,2.5920000076293945 -10.013999938964844,0 C-10.01449966430664,-5.527002334594727 -5.527002334594727,-10.01449966430664 0,-10.01449966430664 C0,-10.01449966430664 0,-10.01449966430664 0,-10.01449966430664 C5.527002334594727,-10.01449966430664 10.01449966430664,-5.527002334594727 10.01449966430664,0 C10.013999938964844,4.2829999923706055 7.320000171661377,7.941999912261963 3.5339999198913574,9.371999740600586"
                    ></path>
                  </g>
                </g>
                <g
                  transform="matrix(0.6989896297454834,0.7151317596435547,-0.7151317596435547,0.6989896297454834,271.95098876953125,190.59410095214844)"
                  opacity="1"
                  style="display: block"
                >
                  <g
                    opacity="1"
                    transform="matrix(1,0,0,1,-44.097999572753906,63.2859992980957)"
                  >
                    <path
                      fill="rgb(255,255,255)"
                      fill-opacity="1"
                      d=" M3.5339999198913574,9.371999740600586 C2.434999942779541,9.786999702453613 1.24399995803833,10.013999938964844 0,10.013999938964844 C-5.527002334594727,10.01449966430664 -10.01449966430664,5.527002334594727 -10.01449966430664,0 C-10.01449966430664,-5.527002334594727 -5.527002334594727,-10.01449966430664 0,-10.01449966430664 C0,-10.01449966430664 0,-10.013999938964844 0,-10.013999938964844 C5.370999813079834,-10.013999938964844 9.760000228881836,-5.7769999504089355 10.003999710083008,-0.4659999907016754"
                    ></path>
                    <path
                      stroke-linecap="round"
                      stroke-linejoin="miter"
                      fill-opacity="0"
                      stroke-miterlimit="4"
                      stroke="rgb(160,182,59)"
                      stroke-opacity="1"
                      stroke-width="4"
                      d=" M3.5339999198913574,9.371999740600586 C2.434999942779541,9.786999702453613 1.24399995803833,10.013999938964844 0,10.013999938964844 C-5.527002334594727,10.01449966430664 -10.01449966430664,5.527002334594727 -10.01449966430664,0 C-10.01449966430664,-5.527002334594727 -5.527002334594727,-10.01449966430664 0,-10.01449966430664 C0,-10.01449966430664 0,-10.013999938964844 0,-10.013999938964844 C5.370999813079834,-10.013999938964844 9.760000228881836,-5.7769999504089355 10.003999710083008,-0.4659999907016754"
                    ></path>
                  </g>
                </g>
                <g
                  transform="matrix(2,0,0,2,41.417999267578125,226)"
                  opacity="1"
                  style="display: block"
                >
                  <g opacity="1" transform="matrix(1,0,0,1,48.25,1.25)">
                    <path
                      fill="rgb(160,182,59)"
                      fill-opacity="1"
                      d=" M-47,-1 C-47,-1 47,-1 47,-1 C47.553001403808594,-1 48,-0.5529999732971191 48,0 C48,0.5529999732971191 47.553001403808594,1 47,1 C47,1 -47,1 -47,1 C-47.551998138427734,1 -48,0.5529999732971191 -48,0 C-48,-0.5529999732971191 -47.551998138427734,-1 -47,-1z"
                    ></path>
                  </g>
                </g>
                <g
                  transform="matrix(2,0,0,2,-207.8330078125,115.5)"
                  opacity="1"
                  style="display: block"
                >
                  <g opacity="1" transform="matrix(1,0,0,1,48.25,1.25)">
                    <path
                      fill="rgb(23,80,67)"
                      fill-opacity="1"
                      d=" M-47,-1 C-47,-1 47,-1 47,-1 C47.553001403808594,-1 48,-0.5529999732971191 48,0 C48,0.5529999732971191 47.553001403808594,1 47,1 C47,1 -47,1 -47,1 C-47.551998138427734,1 -48,0.5529999732971191 -48,0 C-48,-0.5529999732971191 -47.551998138427734,-1 -47,-1z"
                    ></path>
                  </g>
                </g>
                <g
                  style="display: block"
                  transform="matrix(0.16159863770008087,0,0,2,144.6405029296875,115.5)"
                  opacity="1"
                >
                  <g opacity="1" transform="matrix(1,0,0,1,48.25,1.25)">
                    <path
                      fill="rgb(23,80,67)"
                      fill-opacity="1"
                      d=" M-47,-1 C-47,-1 47,-1 47,-1 C47.553001403808594,-1 48,-0.5529999732971191 48,0 C48,0.5529999732971191 47.553001403808594,1 47,1 C47,1 -47,1 -47,1 C-47.551998138427734,1 -48,0.5529999732971191 -48,0 C-48,-0.5529999732971191 -47.551998138427734,-1 -47,-1z"
                    ></path>
                  </g>
                </g>
                <g
                  transform="matrix(2,0,0,2,-207.8330078125,165.5)"
                  opacity="1"
                  style="display: block"
                >
                  <g opacity="1" transform="matrix(1,0,0,1,48.25,1.25)">
                    <path
                      fill="rgb(23,80,67)"
                      fill-opacity="1"
                      d=" M-47,-1 C-47,-1 47,-1 47,-1 C47.553001403808594,-1 48,-0.5529999732971191 48,0 C48,0.5529999732971191 47.553001403808594,1 47,1 C47,1 -47,1 -47,1 C-47.551998138427734,1 -48,0.5529999732971191 -48,0 C-48,-0.5529999732971191 -47.551998138427734,-1 -47,-1z"
                    ></path>
                  </g>
                </g>
                <g
                  style="display: block"
                  transform="matrix(2,0,0,2,295.1669921875,165.5)"
                  opacity="1"
                >
                  <g opacity="1" transform="matrix(1,0,0,1,48.25,1.25)">
                    <path
                      fill="rgb(23,80,67)"
                      fill-opacity="1"
                      d=" M-47,-1 C-47,-1 47,-1 47,-1 C47.553001403808594,-1 48,-0.5529999732971191 48,0 C48,0.5529999732971191 47.553001403808594,1 47,1 C47,1 -47,1 -47,1 C-47.551998138427734,1 -48,0.5529999732971191 -48,0 C-48,-0.5529999732971191 -47.551998138427734,-1 -47,-1z"
                    ></path>
                  </g>
                </g>
                <g
                  transform="matrix(2,0,0,2,-207.8330078125,55.5)"
                  opacity="1"
                  style="display: block"
                >
                  <g opacity="1" transform="matrix(1,0,0,1,48.25,1.25)">
                    <path
                      fill="rgb(23,80,67)"
                      fill-opacity="1"
                      d=" M-47,-1 C-47,-1 47,-1 47,-1 C47.553001403808594,-1 48,-0.5529999732971191 48,0 C48,0.5529999732971191 47.553001403808594,1 47,1 C47,1 -47,1 -47,1 C-47.551998138427734,1 -48,0.5529999732971191 -48,0 C-48,-0.5529999732971191 -47.551998138427734,-1 -47,-1z"
                    ></path>
                  </g>
                </g>
                <g
                  style="display: block"
                  transform="matrix(2,0,0,2,-207.8330078125,55.5)"
                  opacity="1"
                >
                  <g opacity="1" transform="matrix(1,0,0,1,48.25,1.25)">
                    <path
                      fill="rgb(23,80,67)"
                      fill-opacity="1"
                      d=" M-47,-1 C-47,-1 47,-1 47,-1 C47.553001403808594,-1 48,-0.5529999732971191 48,0 C48,0.5529999732971191 47.553001403808594,1 47,1 C47,1 -47,1 -47,1 C-47.551998138427734,1 -48,0.5529999732971191 -48,0 C-48,-0.5529999732971191 -47.551998138427734,-1 -47,-1z"
                    ></path>
                  </g>
                </g>
                <g
                  style="display: block"
                  transform="matrix(1.9999971389770508,0.0033510306384414434,-0.0033510306384414434,1.9999971389770508,323.70172119140625,81.18220520019531)"
                  opacity="1"
                >
                  <g
                    opacity="1"
                    transform="matrix(1,0,0,1,6.389999866485596,6.389999866485596)"
                  >
                    <path
                      fill="rgb(160,182,59)"
                      fill-opacity="1"
                      d=" M2.8289999961853027,-2.8289999961853027 C4.390999794006348,-1.2669999599456787 4.390999794006348,1.2669999599456787 2.8289999961853027,2.8289999961853027 C1.2669999599456787,4.390999794006348 -1.2669999599456787,4.390999794006348 -2.8289999961853027,2.8289999961853027 C-4.390999794006348,1.2669999599456787 -4.390999794006348,-1.2669999599456787 -2.8289999961853027,-2.8289999961853027 C-1.2669999599456787,-4.390999794006348 1.2669999599456787,-4.390999794006348 2.8289999961853027,-2.8289999961853027z"
                    ></path>
                    <path
                      stroke-linecap="round"
                      stroke-linejoin="round"
                      fill-opacity="0"
                      stroke="rgb(23,80,67)"
                      stroke-opacity="1"
                      stroke-width="0"
                      d=" M2.8289999961853027,-2.8289999961853027 C4.390999794006348,-1.2669999599456787 4.390999794006348,1.2669999599456787 2.8289999961853027,2.8289999961853027 C1.2669999599456787,4.390999794006348 -1.2669999599456787,4.390999794006348 -2.8289999961853027,2.8289999961853027 C-4.390999794006348,1.2669999599456787 -4.390999794006348,-1.2669999599456787 -2.8289999961853027,-2.8289999961853027 C-1.2669999599456787,-4.390999794006348 1.2669999599456787,-4.390999794006348 2.8289999961853027,-2.8289999961853027z"
                    ></path>
                  </g>
                </g>
                <g
                  style="display: none"
                  transform="matrix(1.9999971389770508,0.0033510306384414434,-0.0033510306384414434,1.9999971389770508,94.47990417480469,56.0207405090332)"
                  opacity="0.1259239999999906"
                >
                  <g
                    opacity="1"
                    transform="matrix(1,0,0,1,6.389999866485596,6.389999866485596)"
                  >
                    <path
                      fill="rgb(160,182,59)"
                      fill-opacity="1"
                      d=" M2.8289999961853027,-2.8289999961853027 C4.390999794006348,-1.2669999599456787 4.390999794006348,1.2669999599456787 2.8289999961853027,2.8289999961853027 C1.2669999599456787,4.390999794006348 -1.2669999599456787,4.390999794006348 -2.8289999961853027,2.8289999961853027 C-4.390999794006348,1.2669999599456787 -4.390999794006348,-1.2669999599456787 -2.8289999961853027,-2.8289999961853027 C-1.2669999599456787,-4.390999794006348 1.2669999599456787,-4.390999794006348 2.8289999961853027,-2.8289999961853027z"
                    ></path>
                    <path
                      stroke-linecap="round"
                      stroke-linejoin="round"
                      fill-opacity="0"
                      stroke="rgb(23,80,67)"
                      stroke-opacity="1"
                      stroke-width="0"
                      d=" M2.8289999961853027,-2.8289999961853027 C4.390999794006348,-1.2669999599456787 4.390999794006348,1.2669999599456787 2.8289999961853027,2.8289999961853027 C1.2669999599456787,4.390999794006348 -1.2669999599456787,4.390999794006348 -2.8289999961853027,2.8289999961853027 C-4.390999794006348,1.2669999599456787 -4.390999794006348,-1.2669999599456787 -2.8289999961853027,-2.8289999961853027 C-1.2669999599456787,-4.390999794006348 1.2669999599456787,-4.390999794006348 2.8289999961853027,-2.8289999961853027z"
                    ></path>
                  </g>
                </g>
                <g
                  style="display: none"
                  transform="matrix(1.9999971389770508,0.0033510306384414434,-0.0033510306384414434,1.9999971389770508,39.923255920410156,55.55442810058594)"
                  opacity="0.005123999999987916"
                >
                  <g
                    opacity="1"
                    transform="matrix(1,0,0,1,6.389999866485596,6.389999866485596)"
                  >
                    <path
                      fill="rgb(160,182,59)"
                      fill-opacity="1"
                      d=" M2.8289999961853027,-2.8289999961853027 C4.390999794006348,-1.2669999599456787 4.390999794006348,1.2669999599456787 2.8289999961853027,2.8289999961853027 C1.2669999599456787,4.390999794006348 -1.2669999599456787,4.390999794006348 -2.8289999961853027,2.8289999961853027 C-4.390999794006348,1.2669999599456787 -4.390999794006348,-1.2669999599456787 -2.8289999961853027,-2.8289999961853027 C-1.2669999599456787,-4.390999794006348 1.2669999599456787,-4.390999794006348 2.8289999961853027,-2.8289999961853027z"
                    ></path>
                    <path
                      stroke-linecap="round"
                      stroke-linejoin="round"
                      fill-opacity="0"
                      stroke="rgb(23,80,67)"
                      stroke-opacity="1"
                      stroke-width="0"
                      d=" M2.8289999961853027,-2.8289999961853027 C4.390999794006348,-1.2669999599456787 4.390999794006348,1.2669999599456787 2.8289999961853027,2.8289999961853027 C1.2669999599456787,4.390999794006348 -1.2669999599456787,4.390999794006348 -2.8289999961853027,2.8289999961853027 C-4.390999794006348,1.2669999599456787 -4.390999794006348,-1.2669999599456787 -2.8289999961853027,-2.8289999961853027 C-1.2669999599456787,-4.390999794006348 1.2669999599456787,-4.390999794006348 2.8289999961853027,-2.8289999961853027z"
                    ></path>
                  </g>
                </g>
                <g
                  style="display: block"
                  transform="matrix(1.9999971389770508,0.0033510306384414434,-0.0033510306384414434,1.9999971389770508,375.5934143066406,121.49861145019531)"
                  opacity="1"
                >
                  <g opacity="1" transform="matrix(1,0,0,1,4,4)">
                    <path
                      fill="rgb(160,182,59)"
                      fill-opacity="1"
                      d=" M2,0 C2,1.1039999723434448 1.1039999723434448,2 0,2 C-1.1039999723434448,2 -2,1.1039999723434448 -2,0 C-2,-1.1039999723434448 -1.1039999723434448,-2 0,-2 C1.1039999723434448,-2 2,-1.1039999723434448 2,0z"
                    ></path>
                    <path
                      stroke-linecap="round"
                      stroke-linejoin="round"
                      fill-opacity="0"
                      stroke="rgb(23,80,67)"
                      stroke-opacity="1"
                      stroke-width="0"
                      d=" M2,0 C2,1.1039999723434448 1.1039999723434448,2 0,2 C-1.1039999723434448,2 -2,1.1039999723434448 -2,0 C-2,-1.1039999723434448 -1.1039999723434448,-2 0,-2 C1.1039999723434448,-2 2,-1.1039999723434448 2,0z"
                    ></path>
                  </g>
                </g>
                <g
                  style="display: none"
                  transform="matrix(1.9999971389770508,0.0033510306384414434,-0.0033510306384414434,1.9999971389770508,228.6592254638672,42.25822067260742)"
                  opacity="0.02474559999999144"
                >
                  <g opacity="1" transform="matrix(1,0,0,1,4,4)">
                    <path
                      fill="rgb(160,182,59)"
                      fill-opacity="1"
                      d=" M2,0 C2,1.1039999723434448 1.1039999723434448,2 0,2 C-1.1039999723434448,2 -2,1.1039999723434448 -2,0 C-2,-1.1039999723434448 -1.1039999723434448,-2 0,-2 C1.1039999723434448,-2 2,-1.1039999723434448 2,0z"
                    ></path>
                    <path
                      stroke-linecap="round"
                      stroke-linejoin="round"
                      fill-opacity="0"
                      stroke="rgb(23,80,67)"
                      stroke-opacity="1"
                      stroke-width="0"
                      d=" M2,0 C2,1.1039999723434448 1.1039999723434448,2 0,2 C-1.1039999723434448,2 -2,1.1039999723434448 -2,0 C-2,-1.1039999723434448 -1.1039999723434448,-2 0,-2 C1.1039999723434448,-2 2,-1.1039999723434448 2,0z"
                    ></path>
                  </g>
                </g>
                <g
                  style="display: none"
                  transform="matrix(1.9999971389770508,0.0033510306384414434,-0.0033510306384414434,1.9999971389770508,214.7279052734375,42.26795959472656)"
                  opacity="0.03528639999999257"
                >
                  <g opacity="1" transform="matrix(1,0,0,1,4,4)">
                    <path
                      fill="rgb(160,182,59)"
                      fill-opacity="1"
                      d=" M2,0 C2,1.1039999723434448 1.1039999723434448,2 0,2 C-1.1039999723434448,2 -2,1.1039999723434448 -2,0 C-2,-1.1039999723434448 -1.1039999723434448,-2 0,-2 C1.1039999723434448,-2 2,-1.1039999723434448 2,0z"
                    ></path>
                    <path
                      stroke-linecap="round"
                      stroke-linejoin="round"
                      fill-opacity="0"
                      stroke="rgb(23,80,67)"
                      stroke-opacity="1"
                      stroke-width="0"
                      d=" M2,0 C2,1.1039999723434448 1.1039999723434448,2 0,2 C-1.1039999723434448,2 -2,1.1039999723434448 -2,0 C-2,-1.1039999723434448 -1.1039999723434448,-2 0,-2 C1.1039999723434448,-2 2,-1.1039999723434448 2,0z"
                    ></path>
                  </g>
                </g>
                <g
                  transform="matrix(2,0,0,2,338.0679931640625,57.04399871826172)"
                  opacity="1"
                  style="display: block"
                >
                  <g
                    opacity="1"
                    transform="matrix(1,0,0,1,19.277999877929688,10.038000106811523)"
                  >
                    <path
                      fill="rgb(255,255,255)"
                      fill-opacity="1"
                      d=" M-1.128999948501587,-3.697000026702881 C5.6539998054504395,-4.204999923706055 12.055999755859375,0.006000000052154064 15.300999641418457,4.448999881744385 C15.937000274658203,5.317999839782715 17.277999877929688,4.934000015258789 17.18400001525879,3.8440001010894775 C16.729000091552734,-1.4900000095367432 8.508999824523926,-8.038000106811523 -0.871999979019165,-7.24399995803833 C-10.251999855041504,-6.449999809265137 -17.277999877929688,0.9750000238418579 -16.78700065612793,6.71999979019165 C-16.69300079345703,7.809999942779541 -14.562999725341797,8.038000106811523 -14.145000457763672,7.11299991607666 C-11.902999877929688,2.1500000953674316 -7.794000148773193,-3.197000026702881 -1.128999948501587,-3.697000026702881z"
                    ></path>
                    <path
                      stroke-linecap="butt"
                      stroke-linejoin="miter"
                      fill-opacity="0"
                      stroke-miterlimit="4"
                      stroke="rgb(23,80,67)"
                      stroke-opacity="1"
                      stroke-width="2"
                      d=" M-1.128999948501587,-3.697000026702881 C5.6539998054504395,-4.204999923706055 12.055999755859375,0.006000000052154064 15.300999641418457,4.448999881744385 C15.937000274658203,5.317999839782715 17.277999877929688,4.934000015258789 17.18400001525879,3.8440001010894775 C16.729000091552734,-1.4900000095367432 8.508999824523926,-8.038000106811523 -0.871999979019165,-7.24399995803833 C-10.251999855041504,-6.449999809265137 -17.277999877929688,0.9750000238418579 -16.78700065612793,6.71999979019165 C-16.69300079345703,7.809999942779541 -14.562999725341797,8.038000106811523 -14.145000457763672,7.11299991607666 C-11.902999877929688,2.1500000953674316 -7.794000148773193,-3.197000026702881 -1.128999948501587,-3.697000026702881z"
                    ></path>
                  </g>
                </g>
                <g
                  transform="matrix(2,0,0,2,316.3760070800781,76.88400268554688)"
                  opacity="1"
                  style="display: block"
                >
                  <g
                    opacity="1"
                    transform="matrix(1,0,0,1,32.17300033569336,9.913999557495117)"
                  >
                    <path
                      fill="rgb(255,255,255)"
                      fill-opacity="1"
                      d=" M-29.417999267578125,7.892000198364258 C-29.636999130249023,7.914000034332275 -29.83799934387207,7.756999969482422 -29.850000381469727,7.543000221252441 C-30.17300033569336,1.8329999446868896 -22.884000778198242,-3.5309998989105225 -13.364999771118164,-4.486999988555908 C-13.364999771118164,-4.486999988555908 11.246000289916992,-6.959000110626221 11.246000289916992,-6.959000110626221 C20.76099967956543,-7.914000034332275 29.1200008392334,-4.125 30.134000778198242,1.5119999647140503 C30.17300033569336,1.725000023841858 30.007999420166016,1.9249999523162842 29.785999298095703,1.9470000267028809 C29.785999298095703,1.9470000267028809 -29.417999267578125,7.892000198364258 -29.417999267578125,7.892000198364258z"
                    ></path>
                    <path
                      stroke-linecap="butt"
                      stroke-linejoin="miter"
                      fill-opacity="0"
                      stroke-miterlimit="4"
                      stroke="rgb(23,80,67)"
                      stroke-opacity="1"
                      stroke-width="2"
                      d=" M-29.417999267578125,7.892000198364258 C-29.636999130249023,7.914000034332275 -29.83799934387207,7.756999969482422 -29.850000381469727,7.543000221252441 C-30.17300033569336,1.8329999446868896 -22.884000778198242,-3.5309998989105225 -13.364999771118164,-4.486999988555908 C-13.364999771118164,-4.486999988555908 11.246000289916992,-6.959000110626221 11.246000289916992,-6.959000110626221 C20.76099967956543,-7.914000034332275 29.1200008392334,-4.125 30.134000778198242,1.5119999647140503 C30.17300033569336,1.725000023841858 30.007999420166016,1.9249999523162842 29.785999298095703,1.9470000267028809 C29.785999298095703,1.9470000267028809 -29.417999267578125,7.892000198364258 -29.417999267578125,7.892000198364258z"
                    ></path>
                  </g>
                </g>
                <g
                  transform="matrix(2,0,0,2,329.58001708984375,92.5)"
                  opacity="1"
                  style="display: block"
                >
                  <g
                    opacity="1"
                    transform="matrix(1,0,0,1,5.355000019073486,3.7920000553131104)"
                  >
                    <path
                      stroke-linecap="round"
                      stroke-linejoin="round"
                      fill-opacity="0"
                      stroke="rgb(160,182,59)"
                      stroke-opacity="1"
                      stroke-width="2"
                      d=" M-3.3550000190734863,1.7920000553131104 C-2.134999990463257,0.6769999861717224 0.014999999664723873,-0.8410000205039978 3.3550000190734863,-1.7920000553131104"
                    ></path>
                  </g>
                </g>
                <g
                  transform="matrix(2,0,0,2,317,116.5)"
                  opacity="1"
                  style="display: block"
                >
                  <g opacity="1" transform="matrix(1,0,0,1,32,26)">
                    <path
                      fill="rgb(255,255,255)"
                      fill-opacity="1"
                      d=" M23.84600067138672,24 C23.84600067138672,24 -23.84600067138672,24 -23.84600067138672,24 C-27.231000900268555,24 -30,21.167999267578125 -30,17.704999923706055 C-30,17.704999923706055 -30,-23.606000900268555 -30,-23.606000900268555 C-30,-23.823999404907227 -29.827999114990234,-24 -29.614999771118164,-24 C-29.614999771118164,-24 29.615999221801758,-24 29.615999221801758,-24 C29.827999114990234,-24 30,-23.823999404907227 30,-23.606000900268555 C30,-23.606000900268555 30,17.704999923706055 30,17.704999923706055 C30,21.167999267578125 27.231000900268555,24 23.84600067138672,24z"
                    ></path>
                    <path
                      stroke-linecap="butt"
                      stroke-linejoin="miter"
                      fill-opacity="0"
                      stroke-miterlimit="4"
                      stroke="rgb(23,80,67)"
                      stroke-opacity="1"
                      stroke-width="2"
                      d=" M23.84600067138672,24 C23.84600067138672,24 -23.84600067138672,24 -23.84600067138672,24 C-27.231000900268555,24 -30,21.167999267578125 -30,17.704999923706055 C-30,17.704999923706055 -30,-23.606000900268555 -30,-23.606000900268555 C-30,-23.823999404907227 -29.827999114990234,-24 -29.614999771118164,-24 C-29.614999771118164,-24 29.615999221801758,-24 29.615999221801758,-24 C29.827999114990234,-24 30,-23.823999404907227 30,-23.606000900268555 C30,-23.606000900268555 30,17.704999923706055 30,17.704999923706055 C30,21.167999267578125 27.231000900268555,24 23.84600067138672,24z"
                    ></path>
                  </g>
                </g>
                <g
                  transform="matrix(2,0,0,2,321.00201416015625,224.5)"
                  opacity="1"
                  style="display: block"
                >
                  <g opacity="1" transform="matrix(1,0,0,1,30,4)">
                    <path
                      stroke-linecap="round"
                      stroke-linejoin="round"
                      fill-opacity="0"
                      stroke="rgb(160,182,59)"
                      stroke-opacity="1"
                      stroke-width="2"
                      d=" M-28,2 C-28,2 -28,-0.19599999487400055 -28,-0.19599999487400055 C-28,-1.1920000314712524 -27.347000122070312,-2 -26.54199981689453,-2 C-26.54199981689453,-2 26.54199981689453,-2 26.54199981689453,-2 C27.347999572753906,-2 28,-1.1920000314712524 28,-0.19599999487400055 C28,-0.19599999487400055 28,2 28,2"
                    ></path>
                  </g>
                </g>
                <g
                  transform="matrix(2,0,0,2,379.41998291015625,226.5)"
                  opacity="1"
                  style="display: block"
                >
                  <g opacity="1" transform="matrix(1,0,0,1,0,0)">
                    <path
                      stroke-linecap="round"
                      stroke-linejoin="round"
                      fill-opacity="0"
                      stroke="rgb(160,182,59)"
                      stroke-opacity="1"
                      stroke-width="2"
                      d=" M1,5 C1,5 1,1 1,1"
                    ></path>
                  </g>
                </g>
                <g
                  transform="matrix(2,0,0,2,387.78997802734375,158.2259979248047)"
                  opacity="1"
                  style="display: block"
                >
                  <g
                    opacity="1"
                    transform="matrix(1,0,0,1,19.81999969482422,19.92799949645996)"
                  >
                    <path
                      fill="rgb(160,182,59)"
                      fill-opacity="1"
                      d=" M2.571000099182129,2.2790000438690186 C-4.914000034332275,0.656000018119812 5.541999816894531,-11.194000244140625 -1.1169999837875366,-17.599000930786133 C-1.371999979019165,-17.844999313354492 -1.7879999876022339,-17.648000717163086 -1.7899999618530273,-17.28700065612793 C-1.8550000190734863,-4.456999778747559 -17.812000274658203,3.757999897003174 -2.7139999866485596,13.17300033569336 C2.2839999198913574,16.290000915527344 9.369000434875488,12.494000434875488 11.293999671936035,6.74399995803833 C12.357000350952148,3.569000005722046 11.847999572753906,-0.20100000500679016 8.545000076293945,-3.7320001125335693 C8.300000190734863,-3.99399995803833 7.866000175476074,-3.825000047683716 7.84499979019165,-3.4600000381469727 C7.730999946594238,-1.4539999961853027 6.982999801635742,2.927999973297119 2.571000099182129,2.2790000438690186z"
                    ></path>
                    <path
                      stroke-linecap="butt"
                      stroke-linejoin="miter"
                      fill-opacity="0"
                      stroke-miterlimit="4"
                      stroke="rgb(23,80,67)"
                      stroke-opacity="1"
                      stroke-width="2"
                      d=" M2.571000099182129,2.2790000438690186 C-4.914000034332275,0.656000018119812 5.541999816894531,-11.194000244140625 -1.1169999837875366,-17.599000930786133 C-1.371999979019165,-17.844999313354492 -1.7879999876022339,-17.648000717163086 -1.7899999618530273,-17.28700065612793 C-1.8550000190734863,-4.456999778747559 -17.812000274658203,3.757999897003174 -2.7139999866485596,13.17300033569336 C2.2839999198913574,16.290000915527344 9.369000434875488,12.494000434875488 11.293999671936035,6.74399995803833 C12.357000350952148,3.569000005722046 11.847999572753906,-0.20100000500679016 8.545000076293945,-3.7320001125335693 C8.300000190734863,-3.99399995803833 7.866000175476074,-3.825000047683716 7.84499979019165,-3.4600000381469727 C7.730999946594238,-1.4539999961853027 6.982999801635742,2.927999973297119 2.571000099182129,2.2790000438690186z"
                    ></path>
                  </g>
                </g>
                <g
                  transform="matrix(2,0,0,2,379.5740051269531,188.22601318359375)"
                  opacity="1"
                  style="display: block"
                >
                  <g opacity="1" transform="matrix(1,0,0,1,0,0)"></g>
                  <g
                    opacity="1"
                    transform="matrix(1,0,0,1,13.342000007629395,12.907999992370605)"
                  >
                    <path
                      fill="rgb(160,182,59)"
                      fill-opacity="1"
                      d=" M11.342000007629395,3.305000066757202 C2.8949999809265137,10.907999992370605 -11.342000007629395,0.7319999933242798 -1.0119999647140503,-10.628999710083008 C-0.7580000162124634,-10.907999992370605 -0.28999999165534973,-10.751999855041504 -0.25999999046325684,-10.375 C-0.052000001072883606,-7.848999977111816 1.024999976158142,-1.5089999437332153 6.5960001945495605,-3.5980000495910645"
                    ></path>
                    <path
                      stroke-linecap="round"
                      stroke-linejoin="miter"
                      fill-opacity="0"
                      stroke-miterlimit="4"
                      stroke="rgb(23,80,67)"
                      stroke-opacity="1"
                      stroke-width="2"
                      d=" M11.342000007629395,3.305000066757202 C2.8949999809265137,10.907999992370605 -11.342000007629395,0.7319999933242798 -1.0119999647140503,-10.628999710083008 C-0.7580000162124634,-10.907999992370605 -0.28999999165534973,-10.751999855041504 -0.25999999046325684,-10.375 C-0.052000001072883606,-7.848999977111816 1.024999976158142,-1.5089999437332153 6.5960001945495605,-3.5980000495910645"
                    ></path>
                  </g>
                </g>
                <g
                  transform="matrix(2,0,0,2,328.00201416015625,132.5)"
                  opacity="1"
                  style="display: block"
                >
                  <g opacity="1" transform="matrix(1,0,0,1,0,0)">
                    <path
                      stroke-linecap="round"
                      stroke-linejoin="round"
                      fill-opacity="0"
                      stroke="rgb(160,182,59)"
                      stroke-opacity="1"
                      stroke-width="2"
                      d=" M1,1 C1,1 1,27 1,27"
                    ></path>
                  </g>
                </g>
                <g
                  transform="matrix(2,0,0,2,325.00201416015625,190.5)"
                  opacity="1"
                  style="display: block"
                >
                  <g opacity="1" transform="matrix(1,0,0,1,3.5,5.5)">
                    <path
                      stroke-linecap="round"
                      stroke-linejoin="round"
                      fill-opacity="0"
                      stroke="rgb(160,182,59)"
                      stroke-opacity="1"
                      stroke-width="2"
                      d=" M1.5,3.5 C-0.5,3.5 -1.5,2.5 -1.5,0.5 C-1.5,0.5 -1.5,-3.5 -1.5,-3.5"
                    ></path>
                  </g>
                </g>
                <g
                  transform="matrix(2,0,0,2,482.25201416015625,54.124000549316406)"
                  opacity="1"
                  style="display: block"
                >
                  <g
                    opacity="1"
                    transform="matrix(1,0,0,1,3.815000057220459,3)"
                  >
                    <path
                      stroke-linecap="round"
                      stroke-linejoin="miter"
                      fill-opacity="0"
                      stroke-miterlimit="4"
                      stroke-dasharray=" 29 18"
                      stroke-dashoffset="42.005592346191406"
                      stroke="rgb(160,182,59)"
                      stroke-opacity="1"
                      stroke-width="2"
                      d=" M1.815000057220459,-1 C-6.656473159790039,19.811946868896484 -10.81027889251709,17.22648811340332 -19.23200035095215,31"
                    ></path>
                  </g>
                </g>
                <g
                  transform="matrix(2,0,0,2,474.75201416015625,46.124000549316406)"
                  opacity="1"
                  style="display: block"
                >
                  <g
                    opacity="1"
                    transform="matrix(1,0,0,1,3.815000057220459,3)"
                  >
                    <path
                      stroke-linecap="round"
                      stroke-linejoin="miter"
                      fill-opacity="0"
                      stroke-miterlimit="4"
                      stroke-dasharray=" 29 9.582411885714272"
                      stroke-dashoffset="18.566020965576172"
                      stroke="rgb(160,182,59)"
                      stroke-opacity="1"
                      stroke-width="2"
                      d=" M1.815000057220459,-1 C-6.656473159790039,19.811946868896484 -10.81027889251709,17.22648811340332 -19.23200035095215,31"
                    ></path>
                  </g>
                </g>
              </g>
            </svg>