    <svg
              xmlns="http://www.w3.org/2000/svg"
              viewBox="0 0 280 280"
              width="150"
              height="150"
              preserveAspectRatio="xMidYMid meet"
              style="
                width: 100%;
                height: 100%;
                transform: translate3d(0px, 0px, 0px);
                content-visibility: visible;
              "
            >
              <defs>
                <clipPath id="__lottie_element_271">
                  <rect width="280" height="280" x="0" y="0"></rect>
                </clipPath>
                <clipPath id="__lottie_element_285">
                  <path d="M0,0 L39,0 L39,10 L0,10z"></path>
                </clipPath>
                <clipPath id="__lottie_element_298">
                  <path d="M0,0 L46,0 L46,20 L0,20z"></path>
                </clipPath>
                <clipPath id="__lottie_element_314">
                  <path d="M0,0 L39,0 L39,10 L0,10z"></path>
                </clipPath>
              </defs>
              <g clip-path="url(#__lottie_element_271)">
                <g
                  transform="matrix(2,0,0,2,0,0)"
                  opacity="1"
                  style="display: block"
                >
                  <g opacity="1" transform="matrix(1,0,0,1,70,115)">
                    <path
                      fill="rgb(160,182,59)"
                      fill-opacity="1"
                      d=" M-38,-1 C-38,-1 38,-1 38,-1 C38.553001403808594,-1 39,-0.5529999732971191 39,0 C39,0.5529999732971191 38.553001403808594,1 38,1 C38,1 -38,1 -38,1 C-38.551998138427734,1 -39,0.5529999732971191 -39,0 C-39,-0.5529999732971191 -38.551998138427734,-1 -38,-1z"
                    ></path>
                  </g>
                </g>
                <g
                  transform="matrix(2,0,0,2,0,0)"
                  opacity="1"
                  style="display: block"
                >
                  <g opacity="1" transform="matrix(1,0,0,1,70,100)">
                    <path
                      fill="rgb(255,255,255)"
                      fill-opacity="1"
                      d=" M-44,-3 C-44,-3 44,-3 44,-3 C45.65700149536133,-3 47,-1.656999945640564 47,0 C47,1.656999945640564 45.65700149536133,3 44,3 C44,3 -44,3 -44,3 C-45.65700149536133,3 -47,1.656999945640564 -47,0 C-47,-1.656999945640564 -45.65700149536133,-3 -44,-3z"
                    ></path>
                    <path
                      stroke-linecap="butt"
                      stroke-linejoin="miter"
                      fill-opacity="0"
                      stroke-miterlimit="4"
                      stroke="rgb(23,80,67)"
                      stroke-opacity="1"
                      stroke-width="2"
                      d=" M-44,-3 C-44,-3 44,-3 44,-3 C45.65700149536133,-3 47,-1.656999945640564 47,0 C47,1.656999945640564 45.65700149536133,3 44,3 C44,3 -44,3 -44,3 C-45.65700149536133,3 -47,1.656999945640564 -47,0 C-47,-1.656999945640564 -45.65700149536133,-3 -44,-3z"
                    ></path>
                  </g>
                </g>
                <g
                  transform="matrix(2,0,0,2,0,0)"
                  opacity="1"
                  style="display: block"
                >
                  <g opacity="1" transform="matrix(1,0,0,1,70,108)">
                    <path
                      fill="rgb(255,255,255)"
                      fill-opacity="1"
                      d=" M-38.13199996948242,-5 C-38.13199996948242,-5 -35.91899871826172,-1.6799999475479126 -35.91899871826172,-1.6799999475479126 C-33.13600158691406,2.493000030517578 -28.452999114990234,5 -23.437999725341797,5 C-23.437999725341797,5 23.437999725341797,5 23.437999725341797,5 C28.45199966430664,5 33.13600158691406,2.493000030517578 35.917999267578125,-1.6799999475479126 C35.917999267578125,-1.6799999475479126 38.13199996948242,-5 38.13199996948242,-5 C38.13199996948242,-5 -38.13199996948242,-5 -38.13199996948242,-5z"
                    ></path>
                    <path
                      stroke-linecap="butt"
                      stroke-linejoin="miter"
                      fill-opacity="0"
                      stroke-miterlimit="4"
                      stroke="rgb(23,80,67)"
                      stroke-opacity="1"
                      stroke-width="2"
                      d=" M-38.13199996948242,-5 C-38.13199996948242,-5 -35.91899871826172,-1.6799999475479126 -35.91899871826172,-1.6799999475479126 C-33.13600158691406,2.493000030517578 -28.452999114990234,5 -23.437999725341797,5 C-23.437999725341797,5 23.437999725341797,5 23.437999725341797,5 C28.45199966430664,5 33.13600158691406,2.493000030517578 35.917999267578125,-1.6799999475479126 C35.917999267578125,-1.6799999475479126 38.13199996948242,-5 38.13199996948242,-5 C38.13199996948242,-5 -38.13199996948242,-5 -38.13199996948242,-5z"
                    ></path>
                  </g>
                </g>
                <g
                  transform="matrix(2,0,0,2,0,0)"
                  opacity="1"
                  style="display: block"
                >
                  <g opacity="1" transform="matrix(1,0,0,1,126,70)">
                    <path
                      stroke-linecap="round"
                      stroke-linejoin="miter"
                      fill-opacity="0"
                      stroke-miterlimit="4"
                      stroke="rgb(160,182,59)"
                      stroke-opacity="1"
                      stroke-width="2"
                      d=" M6,44 C6,44 -3.1050000190734863,36.45100021362305 -3.1050000190734863,36.45100021362305 C-4.939000129699707,34.93199920654297 -6,32.67399978637695 -6,30.292999267578125 C-6,30.292999267578125 -6,-30.29199981689453 -6,-30.29199981689453 C-6,-32.67399978637695 -4.939000129699707,-34.93199920654297 -3.1050000190734863,-36.45199966430664 C-3.1050000190734863,-36.45199966430664 6,-44 6,-44"
                    ></path>
                  </g>
                </g>
                <g
                  transform="matrix(2,0,0,2,0,0)"
                  opacity="1"
                  style="display: block"
                >
                  <g opacity="1" transform="matrix(1,0,0,1,70.5,19.5)">
                    <path
                      stroke-linecap="round"
                      stroke-linejoin="miter"
                      fill-opacity="0"
                      stroke-miterlimit="4"
                      stroke="rgb(160,182,59)"
                      stroke-opacity="1"
                      stroke-width="2"
                      d=" M-49.5,-6.5 C-49.5,-6.5 -40.702999114990234,3.7190001010894775 -40.702999114990234,3.7190001010894775 C-39.18299865722656,5.485000133514404 -36.96900177001953,6.5 -34.63999938964844,6.5 C-34.63999938964844,6.5 34.63999938964844,6.5 34.63999938964844,6.5 C36.96900177001953,6.5 39.18299865722656,5.485000133514404 40.70199966430664,3.7190001010894775 C40.70199966430664,3.7190001010894775 49.5,-6.5 49.5,-6.5"
                    ></path>
                  </g>
                </g>
                <g
                  transform="matrix(2,0,0,2,0,0)"
                  opacity="1"
                  style="display: block"
                >
                  <g opacity="1" transform="matrix(1,0,0,1,14,70)">
                    <path
                      stroke-linecap="round"
                      stroke-linejoin="miter"
                      fill-opacity="0"
                      stroke-miterlimit="4"
                      stroke="rgb(160,182,59)"
                      stroke-opacity="1"
                      stroke-width="2"
                      d=" M-6,44 C-6,44 3.1050000190734863,36.45100021362305 3.1050000190734863,36.45100021362305 C4.939000129699707,34.93199920654297 6,32.67399978637695 6,30.292999267578125 C6,30.292999267578125 6,-30.29199981689453 6,-30.29199981689453 C6,-32.67399978637695 4.939000129699707,-34.93199920654297 3.1050000190734863,-36.45199966430664 C3.1050000190734863,-36.45199966430664 -6,-44 -6,-44"
                    ></path>
                  </g>
                </g>
                <g
                  clip-path="url(#__lottie_element_314)"
                  transform="matrix(2,0,0,2,59.0634765625,172)"
                  opacity="1"
                  style="display: none"
                >
                  <g
                    transform="matrix(1,0,0,1,0,0)"
                    opacity="1"
                    style="display: block"
                  >
                    <g opacity="1" transform="matrix(1,0,0,1,19.5,6)">
                      <path
                        fill="rgb(255,255,255)"
                        fill-opacity="1"
                        d=" M-17.5,4 C-17.5,4 -17.5,2 -17.5,2 C-17.5,2 -17.5,-1 -17.5,-1 C-17.5,-2.6540000438690186 -16.15399932861328,-4 -14.5,-4 C-14.5,-4 14.5,-4 14.5,-4 C16.15399932861328,-4 17.5,-2.6540000438690186 17.5,-1 C17.5,-1 17.5,2 17.5,2 C17.5,2 17.5,4 17.5,4 C17.5,4 -17.5,4 -17.5,4z"
                      ></path>
                    </g>
                  </g>
                  <g
                    transform="matrix(1,0,0,1,0,0)"
                    opacity="1"
                    style="display: block"
                  >
                    <g opacity="1" transform="matrix(1,0,0,1,0,0)">
                      <path
                        stroke-linecap="round"
                        stroke-linejoin="miter"
                        fill-opacity="0"
                        stroke-miterlimit="4"
                        stroke="rgb(160,182,59)"
                        stroke-opacity="1"
                        stroke-width="2"
                        d=" M6,6.5 C6,6.5 33,6.5 33,6.5"
                      ></path>
                    </g>
                  </g>
                  <g
                    transform="matrix(1,0,0,1,0,0)"
                    opacity="1"
                    style="display: block"
                  >
                    <g opacity="1" transform="matrix(1,0,0,1,19.5,5)">
                      <path
                        fill="rgb(23,80,67)"
                        fill-opacity="1"
                        d=" M14.5,-5 C14.5,-5 -14.5,-5 -14.5,-5 C-17.256999969482422,-5 -19.5,-2.756999969482422 -19.5,0 C-19.5,0 -19.5,5 -19.5,5 C-19.5,5 -17.5,5 -17.5,5 C-17.5,5 -17.5,3 -17.5,3 C-17.5,3 -17.5,0 -17.5,0 C-17.5,-1.6540000438690186 -16.15399932861328,-3 -14.5,-3 C-14.5,-3 14.5,-3 14.5,-3 C16.15399932861328,-3 17.5,-1.6540000438690186 17.5,0 C17.5,0 17.5,3 17.5,3 C17.5,3 17.5,5 17.5,5 C17.5,5 19.5,5 19.5,5 C19.5,5 19.5,0 19.5,0 C19.5,-2.756999969482422 17.256999969482422,-5 14.5,-5z"
                      ></path>
                    </g>
                  </g>
                </g>
                <g
                  clip-path="url(#__lottie_element_298)"
                  transform="matrix(2,0,0,2,59.961997985839844,152)"
                  opacity="1"
                  style="display: block"
                >
                  <g
                    transform="matrix(1,0,0,1,0,0)"
                    opacity="1"
                    style="display: block"
                  >
                    <g opacity="1" transform="matrix(1,0,0,1,23,10.5)">
                      <path
                        fill="rgb(160,182,59)"
                        fill-opacity="1"
                        d=" M21.790000915527344,9.5 C20.325000762939453,-1.2300000190734863 11.131999969482422,-9.5 0,-9.5 C-11.131999969482422,-9.5 -20.326000213623047,-1.2300000190734863 -21.790000915527344,9.5 C-21.790000915527344,9.5 21.790000915527344,9.5 21.790000915527344,9.5z"
                      ></path>
                    </g>
                  </g>
                  <g
                    transform="matrix(1,0,0,1,0,0)"
                    opacity="1"
                    style="display: block"
                  >
                    <g opacity="1" transform="matrix(1,0,0,1,23,10)">
                      <path
                        fill="rgb(23,80,67)"
                        fill-opacity="1"
                        d=" M-20.763999938964844,10 C-19.30699920654297,-0.2409999966621399 -10.565999984741211,-8 0.0010000000474974513,-8 C10.567000389099121,-8 19.30699920654297,-0.2409999966621399 20.763999938964844,10 C20.763999938964844,10 22.79400062561035,10 22.79400062561035,10 C21.322999954223633,-1.3600000143051147 11.67300033569336,-10 0.0010000000474974513,-10 C-11.670000076293945,-10 -21.322999954223633,-1.3600000143051147 -22.79400062561035,10 C-22.79400062561035,10 -20.763999938964844,10 -20.763999938964844,10z"
                      ></path>
                    </g>
                  </g>
                  <g
                    transform="matrix(1,0,0,1,0,0)"
                    opacity="1"
                    style="display: block"
                  >
                    <g opacity="1" transform="matrix(1,0,0,1,23,13)">
                      <path
                        fill="rgb(255,255,255)"
                        fill-opacity="1"
                        d=" M-14.687999725341797,7 C-13.289999961853027,0.12800000607967377 -7.204999923706055,-5 -0.0010000000474974513,-5 C7.202000141143799,-5 13.288999557495117,0.12800000607967377 14.687999725341797,7 C14.687999725341797,7 16.725000381469727,7 16.725000381469727,7 C15.29800033569336,-0.9890000224113464 8.302000045776367,-7 -0.0010000000474974513,-7 C-8.303999900817871,-7 -15.298999786376953,-0.9890000224113464 -16.725000381469727,7 C-16.725000381469727,7 -14.687999725341797,7 -14.687999725341797,7z"
                      ></path>
                    </g>
                  </g>
                  <g
                    transform="matrix(1,0,0,1,0,0)"
                    opacity="1"
                    style="display: block"
                  >
                    <g opacity="1" transform="matrix(1,0,0,1,23,16.5)">
                      <path
                        fill="rgb(255,255,255)"
                        fill-opacity="1"
                        d=" M-7.414999961853027,3.5 C-6.223999977111816,0.5429999828338623 -3.3369998931884766,-1.5 0,-1.5 C3.3369998931884766,-1.5 6.2230000495910645,0.5429999828338623 7.414000034332275,3.5 C7.414000034332275,3.5 9.541999816894531,3.5 9.541999816894531,3.5 C8.26200008392334,-0.5979999899864197 4.447999954223633,-3.5 0,-3.5 C-4.447999954223633,-3.5 -8.26200008392334,-0.5979999899864197 -9.541999816894531,3.5 C-9.541999816894531,3.5 -7.414999961853027,3.5 -7.414999961853027,3.5z"
                      ></path>
                    </g>
                  </g>
                </g>
                <g
                  clip-path="url(#__lottie_element_285)"
                  style="display: block"
                  transform="matrix(2,0,0,2,147.25,172)"
                  opacity="1"
                >
                  <g
                    style="display: block"
                    transform="matrix(1,0,0,1,0,0)"
                    opacity="1"
                  >
                    <g opacity="1" transform="matrix(1,0,0,1,19.5,6)">
                      <path
                        fill="rgb(255,255,255)"
                        fill-opacity="1"
                        d=" M-17.5,4 C-17.5,4 -17.5,2 -17.5,2 C-17.5,2 -17.5,-1 -17.5,-1 C-17.5,-2.6540000438690186 -16.15399932861328,-4 -14.5,-4 C-14.5,-4 14.5,-4 14.5,-4 C16.15399932861328,-4 17.5,-2.6540000438690186 17.5,-1 C17.5,-1 17.5,2 17.5,2 C17.5,2 17.5,4 17.5,4 C17.5,4 -17.5,4 -17.5,4z"
                      ></path>
                    </g>
                  </g>
                  <g
                    style="display: block"
                    transform="matrix(1,0,0,1,0,0)"
                    opacity="1"
                  >
                    <g opacity="1" transform="matrix(1,0,0,1,0,0)">
                      <path
                        stroke-linecap="round"
                        stroke-linejoin="miter"
                        fill-opacity="0"
                        stroke-miterlimit="4"
                        stroke="rgb(160,182,59)"
                        stroke-opacity="1"
                        stroke-width="2"
                        d=" M6,6.5 C6,6.5 33,6.5 33,6.5"
                      ></path>
                    </g>
                  </g>
                  <g
                    style="display: block"
                    transform="matrix(1,0,0,1,0,0)"
                    opacity="1"
                  >
                    <g opacity="1" transform="matrix(1,0,0,1,19.5,5)">
                      <path
                        fill="rgb(23,80,67)"
                        fill-opacity="1"
                        d=" M14.5,-5 C14.5,-5 -14.5,-5 -14.5,-5 C-17.256999969482422,-5 -19.5,-2.756999969482422 -19.5,0 C-19.5,0 -19.5,5 -19.5,5 C-19.5,5 -17.5,5 -17.5,5 C-17.5,5 -17.5,3 -17.5,3 C-17.5,3 -17.5,0 -17.5,0 C-17.5,-1.6540000438690186 -16.15399932861328,-3 -14.5,-3 C-14.5,-3 14.5,-3 14.5,-3 C16.15399932861328,-3 17.5,-1.6540000438690186 17.5,0 C17.5,0 17.5,3 17.5,3 C17.5,3 17.5,5 17.5,5 C17.5,5 19.5,5 19.5,5 C19.5,5 19.5,0 19.5,0 C19.5,-2.756999969482422 17.256999969482422,-5 14.5,-5z"
                      ></path>
                    </g>
                  </g>
                </g>
                <g
                  transform="matrix(2,0,0,2,160,111.75)"
                  opacity="1"
                  style="display: block"
                >
                  <g opacity="1" transform="matrix(1,0,0,1,0,0)">
                    <path
                      stroke-linecap="round"
                      stroke-linejoin="miter"
                      fill-opacity="0"
                      stroke-miterlimit="4"
                      stroke="rgb(160,182,59)"
                      stroke-opacity="1"
                      stroke-width="2"
                      d=" M-0.699999988079071,-16 C-2.566999912261963,-14.666999816894531 -3.5,-12 -3.5,-8 C-3.5,-2 3.5,2.6670000553131104 3.5,8 C3.5,11.555999755859375 2.0999999046325684,14.222000122070312 -0.699999988079071,16"
                    ></path>
                  </g>
                </g>
                <g
                  transform="matrix(2,0,0,2,142.75,110.32099914550781)"
                  opacity="1"
                  style="display: block"
                >
                  <g opacity="1" transform="matrix(1,0,0,1,0,0)">
                    <path
                      stroke-linecap="round"
                      stroke-linejoin="miter"
                      fill-opacity="0"
                      stroke-miterlimit="4"
                      stroke="rgb(160,182,59)"
                      stroke-opacity="1"
                      stroke-width="2"
                      d=" M-0.699999988079071,-16 C-2.566999912261963,-14.666999816894531 -3.5,-12 -3.5,-8 C-3.5,-2 3.5,2.6670000553131104 3.5,8 C3.5,11.555999755859375 2.0999999046325684,14.222000122070312 -0.699999988079071,16"
                    ></path>
                  </g>
                </g>
                <g
                  transform="matrix(2,0,0,2,126.75,111.75)"
                  opacity="1"
                  style="display: block"
                >
                  <g opacity="1" transform="matrix(1,0,0,1,0,0)">
                    <path
                      stroke-linecap="round"
                      stroke-linejoin="miter"
                      fill-opacity="0"
                      stroke-miterlimit="4"
                      stroke="rgb(160,182,59)"
                      stroke-opacity="1"
                      stroke-width="2"
                      d=" M-0.699999988079071,-16 C-2.566999912261963,-14.666999816894531 -3.5,-12 -3.5,-8 C-3.5,-2 3.5,2.6670000553131104 3.5,8 C3.5,11.555999755859375 2.0999999046325684,14.222000122070312 -0.699999988079071,16"
                    ></path>
                  </g>
                </g>
                <g
                  transform="matrix(2,0,0,2,109.75,111.75)"
                  opacity="1"
                  style="display: block"
                >
                  <g opacity="1" transform="matrix(1,0,0,1,0,0)">
                    <path
                      stroke-linecap="round"
                      stroke-linejoin="miter"
                      fill-opacity="0"
                      stroke-miterlimit="4"
                      stroke="rgb(160,182,59)"
                      stroke-opacity="1"
                      stroke-width="2"
                      d=" M3.5,8 C3.5,11.555999755859375 2.0999999046325684,14.222000122070312 -0.699999988079071,16"
                    ></path>
                  </g>
                </g>
              </g>
            </svg>