   <svg
            style="fill: rgba(23, 80, 67, 0.48)"
            xmlns="http://www.w3.org/2000/svg"
            viewBox="0 0 55.821 55.821"
            class="kids_card__icon icon"
          >
            <path
              d="M55.729 18.653C51.876-.621 22.861 1.658 9.95 3.689a4.668 4.668 0 00-3.927 4.278L4.481 27.674c-1.513.865-5.584 3.705-4.198 8.602.446 1.574 1.078 2.3 1.783 2.477.794.199 1.371.862 1.244 1.671-.402 2.55-1.031 6.92-1.079 9.575-.071 3.925 4.567 3.425 4.567 3.425s6.437-.428 2.727-5.709c-2.049-2.916-1.871-5.046 1.537-6.372l14.673-6.101c-.2 1.443-.034 4.58 2.643 4.761 1.847.125 4.995-.666 3.737-6.226a2.575 2.575 0 01.007-1.191l20.82-8.656c2.071-.861 3.227-3.076 2.787-5.277z"
              fill="#fff1c6"
            ></path>
            <path
              d="M8.96 45.647a.967.967 0 00-.415.344c-.849-2.045-.18-3.599 2.515-4.647l14.673-6.101c-.12.862-.104 2.325.494 3.404l-17.267 7zm45.774-20.353c-1.142 2.372-3.455 3.199-3.529 3.227l-18.812 7.627c.007-.675-.071-1.452-.279-2.37a2.57 2.57 0 01.007-1.19l20.82-8.656a4.647 4.647 0 002.414-2.32c.095 1.374-.104 2.61-.621 3.682z"
              fill="#e0ab36"
            ></path>
            <path
              d="M55.729 18.703C51.876-.572 22.861 1.707 9.95 3.738a4.66 4.66 0 00-3.907 4.154c34.133-5.768 43.006 2.534 47.504 12.368.646 1.412.254 2.668-.469 3.648a4.699 4.699 0 002.651-5.205z"
              fill="#f4c44e"
            ></path>
            <path
              d="M12 3.542v3.452c.682-.09 1.341-.167 2-.244V3.542a.994.994 0 00-.072-.358c-.662.08-1.292.165-1.906.25-.004.037-.022.069-.022.108zM20 2.798v3.393a92.328 92.328 0 012-.107V2.798c0-.102-.03-.194-.058-.286-.644.028-1.278.064-1.906.104-.011.062-.036.118-.036.182zM27 2.798v3.208c.685.012 1.35.035 2 .067V2.798a.969.969 0 00-.062-.305 77.928 77.928 0 00-1.866-.054.999.999 0 00-.072.359zM35.204 3.075c-.007.018-.022.03-.028.048l-1.193 3.423c.69.1 1.358.212 2 .338l1.082-3.103a.997.997 0 00.052-.383 47.68 47.68 0 00-1.913-.323zM42.363 4.764c-.039.061-.087.114-.113.185l-1.207 3.33c.648.242 1.259.503 1.845.776l1.241-3.424c.023-.063.019-.127.029-.19a29.518 29.518 0 00-1.795-.677zM48.865 13.209l2.242-3.254c.005-.007.005-.015.01-.022a17.916 17.916 0 00-1.465-1.298c-.068.057-.14.109-.192.186l-2.084 3.025c.532.436 1.025.892 1.489 1.363zM54.117 14.047a.979.979 0 00-.305.17l-2.441 2.088c.377.566.727 1.143 1.053 1.731l2.497-2.136a16.996 16.996 0 00-.804-1.853z"
              fill="#e0ab36"
            ></path>
            <path
              d="M32.636 17.426c-.502 0-.994-.138-1.423-.404a2.534 2.534 0 01-1.163-1.653c-.066-.321-.418-.52-.79-.446a2.696 2.696 0 01-1.989-.347 2.534 2.534 0 01-1.163-1.653.559.559 0 00-.259-.358.7.7 0 00-.53-.087 1.003 1.003 0 01-1.182-.776 1.001 1.001 0 01.776-1.183 2.703 2.703 0 011.99.347 2.536 2.536 0 011.164 1.653c.041.197.179.31.258.358a.713.713 0 00.53.087c1.45-.291 2.863.599 3.153 2.001.041.197.179.31.258.358a.713.713 0 00.53.087 1 1 0 01.406 1.959 2.787 2.787 0 01-.566.057z"
              fill="#88c057"
            ></path>
            <path
              d="M25 30.284a1 1 0 01-.999-.978 2.24 2.24 0 01.611-1.591 2.073 2.073 0 011.457-.646c.046-.001.113-.077.11-.193a2.222 2.222 0 01.564-1.538 2.058 2.058 0 011.505-.697c.046-.001.113-.077.11-.193a1 1 0 01.979-1.021h.022c.542 0 .988.434 1 .979.026 1.207-.902 2.21-2.068 2.236-.075.001-.113.118-.111.192.026 1.207-.902 2.21-2.068 2.236-.073.048-.114.101-.112.191a.998.998 0 01-.977 1.022l-.023.001zM11.443 25.426a1 1 0 01-.915-1.402 2.715 2.715 0 011.436-1.421 2.543 2.543 0 012.022.011.561.561 0 00.442-.003.715.715 0 00.378-.381c.597-1.354 2.146-1.989 3.458-1.41.299.131.669-.04.821-.385a1 1 0 011.83.806c-.595 1.353-2.145 1.987-3.457 1.408-.301-.134-.669.04-.821.386a2.713 2.713 0 01-1.436 1.42 2.544 2.544 0 01-2.021-.012.566.566 0 00-.442.003.72.72 0 00-.378.382 1 1 0 01-.917.598z"
              fill="#659c35"
            ></path>
            <path
              d="M19.71 29.542c0 2.818-3.042 5.103-6.667 5.103-4.292 0-5.667-.285-5.667-3.103s7.194-4.814 8.667-4.814 3.667-.004 3.667 2.814zM22.029 13.316c0 2.818-3.042 5.103-6.667 5.103-4.292 0-5.667-.285-5.667-3.103s7.194-4.814 8.667-4.814 3.667-.004 3.667 2.814zM44.333 18.275c0 2.818-3.042 5.103-6.667 5.103-4.292 0-5.667-.285-5.667-3.103s7.194-4.814 8.667-4.814 3.667-.005 3.667 2.814z"
              fill="#cd6e61"
            ></path>
            <circle cx="35.501" cy="20.551" r="1" fill="#d79c8c"></circle>
            <circle cx="40.72" cy="17.903" r="1" fill="#d79c8c"></circle>
            <circle cx="39.407" cy="20.419" r="1" fill="#d79c8c"></circle>
            <circle cx="13.253" cy="15.785" r="1" fill="#d79c8c"></circle>
            <circle cx="19.085" cy="14.461" r="1" fill="#d79c8c"></circle>
            <circle cx="15.862" cy="13.461" r="1" fill="#d79c8c"></circle>
            <circle cx="11.003" cy="31.848" r="1" fill="#d79c8c"></circle>
            <circle cx="14.253" cy="29.525" r="1" fill="#d79c8c"></circle>
            <circle cx="15.862" cy="31.525" r="1" fill="#d79c8c"></circle>
          </svg>