        <svg          height="70 "
        
          viewBox="0 0 97.94 81.9 "
        xml:space="preserve" xmlns="http://www.w3.org/2000/svg" xmlns:svg="http://www.w3.org/2000/svg">

        >
          <g class="prefix__DTD" data-name="DTD_logo ">
            <g class="prefix__DTD_shape">
              <path
                class="prefix__DTD_shape-rect"
                stroke-width="3 "
                stroke="#fff"
                fill="none "
                stroke-miterlimit="10 "
                d="M60.9 10.48h4.19v42.64H33.8V10.48h6.15 "
              ></path>
              <path
                fill="#fff "
                d="M51.45 18.63a20 20 0 011.42-3.56 38 38 0 014-6.34q-.84 1.92-1.65 3.93C54 15.5 53 18.27 52.12 20.94a1.39 1.39 0 01-.7-.55 2.07 2.07 0 01.03-1.76z"
              ></path>
              <path
                d="M51.29 20.05A13.8 13.8 0 0159 2.3l.77-.3.3.78a.63.63 0 000 .09 13.8 13.8 0 01-7.7 17.75l-.78.32-.3-.78a.63.63 0 000-.11z "
                stroke="#fff "
                stroke-width="3 "
                fill="none "
                stroke-miterlimit="10 "
              ></path>
              <path
                fill="#fff "
                d="M45.51 16a13.66 13.66 0 00-.51-1.29v-.07a10.15 10.15 0 00-2.33-3.25q.18.29.36.6c.2.36.38.7.53 1l.78 2.01.89 2.22c.15.21.39.54.7.93a15.13 15.13 0 00-.42-2.15z "
              ></path>
              <path
                d="M45.7 16.64a8.34 8.34 0 00-4.65-10.72l-.47-.19-.18.47a.14.14 0 010 .06A8.34 8.34 0 0045 17l.47.19.18-.48a.17.170 01.05-.07z "
                stroke-width="1.62 "
                stroke="#fff "
                fill="none "
                stroke-miterlimit="10 "
              ></path>
              <circle cx="59.67 " cy="36.18 " r="1.34 " fill="#fff "></circle>
            </g>
            <g class="prefix__DTD_txt">
              <path
                fill="#fff "
                d="M8.79 70.8c-.75 0-1.24-.18-1.51-.69a5.49
        5.49 0 01-2.9.68A4.15 4.15 0 010 66.49a4.06 4.06 0 014.26-4.27 5.79 5.79 0 013 .8c0 .2.07-3 .07-3.48s0-1-.25-1.14-1.28 0-1.22-.38 1-.75 1.76-.73 1.64.15 1.64 1v8.47a10.39 10.39 0 00.17 2.84c.23.42 1 0 1.09.44s-.9.76-1.73.76zM7.22 65a3 3 0 00-2.84-1.69C2.8
        63.35 2 64.67 2 66.11s1 3.55 2.87 3.55a2.52 2.52 0 002.31-1.24zM14.34 70.79c-1 0-1.55-.33-1.55-1v-5.17c0-.65 0-.94-.26-1.2s-1.27 0-1.16-.45 1-.71 1.76-.7c1.21 0 1.62.3 1.62.91v5a3.08 3.08 0 00.25 1.39c.21.34 1 .12 1.07.4.05.47-.88.82-1.73.82zm-.84-11.37a.93.93
        0 011 .89.86.86 0 01-.94.89.93.93 0 01-1-.89.88.88 0 01.94-.89zM21.21 70.8c-2.87-.18-4.36-1.87-4.36-4.32a4.07 4.07 0 014.4-4.24 3.77 3.77 0 012.47.83 3.88 3.88 0 011.08 2.51c0 .2 0 .24-.22.28L19.08 67c-.14 0-.12 0-.1.14a3.48 3.48 0 003.52 2.7c1.28
        0 2.3-.82 2.44-.5.22.46-.71 1.66-3.73 1.46zm0-7.51a2.21 2.21 0 00-2.3 2.28c0 .09 0 .21.13.2l4.15-.8a2.11 2.11 0 00-2.01-1.68zM30.51 69.79a3.7 3.7 0 001.49-.35 2.71 2.71 0 01.67-.29c.08 0 .13 0 .13.16a.81.81 0 01-.22.37 3.37 3.37 0 01-.94.65 4.08 4.08
        0 01-1.88.47 2.58 2.58 0 01-2.05-.67 3.32 3.32 0 01-.71-2.58v-4.18h-1.54c-.19 0-.24-.06-.19-.31a.87.87 0 01.37-.48 3.3 3.3 0 011.36-.23v-.46c0-.65 1.13-.91 1.6-1s.4.07.4.22v1.23h3.88c.23 0 .3 0 .2.24a1.25 1.25 0 01-.51.51 2.24 2.24 0 01-1 .26H29v4.16c0
        1.49.24 2.28 1.51 2.28zM42.74 69.79a3.73 3.73 0 001.53-.35 2.42 2.42 0 01.67-.29c.07 0 .13 0 .13.16s-.17.31-.22.37a3.27 3.27 0 01-1 .65 4 4 0 01-1.85.47 2.62 2.62 0 01-2-.67 3.37 3.37 0 01-.74-2.58v-4.18h-1.58c-.18 0-.23-.06-.18-.31a.89.89 0 01.36-.48
        3.35 3.35 0 011.37-.23v-.46c0-.65 1.13-.91 1.6-1s.4.07.4.22v1.23h3.87c.24 0 .31 0 .2.24a1.25 1.25 0 01-.51.51 2.21 2.21 0 01-1 .26h-2.58v4.16c.02 1.49.25 2.28 1.53 2.28zM50.14 62.24a4.44 4.44 0 014.68 4.29c0 2.69-1.77 4.27-4.51 4.27a4.43 4.43 0 01-4.68-4.27c0-2.69
        1.84-4.29 4.51-4.29zm-2.47 3.91c0 1.56 1 3.51 2.8 3.51s2.31-1.33 2.31-2.75c0-1.58-.91-3.47-2.78-3.54-1.58.01-2.33 1.36-2.33 2.78zM68.5 70.8c-.75 0-1.24-.18-1.51-.69a5.45 5.45 0 01-2.89.68 4.15 4.15 0 01-4.39-4.3A4.06 4.06 0 0164 62.22a5.79 5.79 0
        013 .8c0 .2.08-3 .08-3.48s-.06-1-.26-1.14-1.27 0-1.22-.38 1-.75 1.77-.73 1.64.15 1.64 1v8.47a10.47 10.47 0 00.16 2.84c.24.42 1 0 1.09.44s-.92.76-1.76.76zM66.94 65a3 3 0 00-2.84-1.69c-1.58 0-2.35 1.32-2.35 2.76s1 3.55 2.88 3.55a2.53 2.53 0 002.31-1.24zM75.34
        62.24A4.44 4.44 0 0180 66.53c0 2.69-1.77 4.27-4.51 4.27a4.43 4.43 0 01-4.68-4.27c.02-2.69 1.86-4.29 4.53-4.29zm-2.47 3.91c0 1.56 1 3.51 2.8 3.51S78 68.33 78 66.91c0-1.58-.91-3.47-2.78-3.54-1.6.01-2.35 1.36-2.35 2.78zM85.08 62.24a4.44 4.44 0 014.67
        4.29c0 2.69-1.76 4.27-4.51 4.27a4.42 4.42 0 01-4.67-4.27c0-2.69 1.83-4.29 4.51-4.29zm-2.48 3.91c0 1.56 1 3.51 2.8 3.51s2.31-1.33 2.31-2.75c0-1.58-.91-3.47-2.78-3.54-1.58.01-2.33 1.36-2.33 2.78zM97.94 63.57c0 .49-.46 1.14-.78 1.14a.13.13 0 01-.13-.14c0-.64-.69-1.06-1.31-1.06a2.63
        2.63 0 00-1.93 1.38 10.74 10.74 0 00-.05 1.31c0 1.24 0 2.35.07 3s.35.69.89.61c.35 0 .42.28.2.49a2 2 0 01-1.58.5c-1 0-1.53-.33-1.53-1v-5.17c0-.44.06-.93-.23-1.22a1.55 1.55 0 00-1-.2c-.2 0-.31-.23-.07-.43a2.13 2.13 0 011.64-.51c1.21 0 1.63.45 1.63 1.2a3.18
        3.18 0 012.31-1.29c.81-.02 1.87.4 1.87 1.39z "
              ></path>
            </g>
          </g>
        </svg>