  <svg
            style="fill: rgba(23, 80, 67, 0.48)"
            viewBox="0 0 512 512.004"
            xmlns="http://www.w3.org/2000/svg"
            title="Low Salt"
            width="40"
            class="iconfill Badges_icon__q9qb7"
          >
            <path
              d="M.043 290.984c0 .106.129 1.079.36 2.657.109 1.16.292 2.316.546 3.453 4.762 28.281 31.82 147.988 153.985 200.96A173.265 173.265 0 00224.3 512h63.402a173.265 173.265 0 0069.367-13.945c121.696-52.762 149.02-171.766 153.934-200.625.18-.676.21-1.368.34-2.04.418-2.69.597-4.269.617-4.386.016-.121 0-.2 0-.309 0-.11.039-.375.039-.562 0-36.746-69.34-55.938-113.652-64.453l104.351-86.188c5.563-4.59 8.926-11.316 9.27-18.52s-2.371-14.214-7.469-19.316L410.371 7.5A25.607 25.607 0 00391.055.027a25.615 25.615 0 00-18.524 9.266L274.11 128.441a17.28 17.28 0 00-3.718-.441 16.906 16.906 0 00-12.059 4.992l-12.102 12.074a17.064 17.064 0 00-4.12 17.125c-9.15 13.254-9.165 32.114-1.16 51.27C121.66 215.543 0 242.344 0 290.133c0 .203.062.402.07.597.008.196-.07.18-.027.254zm350.242 191.414a156.288 156.288 0 01-62.582 12.536h-63.402a156.288 156.288 0 01-62.582-12.536C73.984 444.355 38.75 369.348 25.125 324.82 66.051 350.3 155.367 366.934 256 366.934c100.637 0 189.918-16.598 230.863-42.055-13.636 44.527-48.879 119.492-136.578 157.52zm144.649-192.511c-.082.687-.274 1.968-.555 3.734a18.009 18.009 0 01-2.422 4.582c-22.39-17.816-63.625-32.426-116.18-41.266l3.25-3.25A16.949 16.949 0 00384 241.621c0-.402-.082-.785-.11-1.18 75.75 12.766 110.645 34.332 111.044 49.446zM253.723 176.69l81.59 81.579c-15.114 5.445-39.641-3.415-58.883-22.684-19.243-19.266-28.11-43.793-22.707-58.895zm54.93-17.484a499.038 499.038 0 0082.023 7.355 304.356 304.356 0 0058.957-5.386l-76.117 62.89-42.797-42.785zm77.054-139.043a8.532 8.532 0 0112.621-.598l94.106 94.13a8.55 8.55 0 012.492 6.44 8.525 8.525 0 01-3.09 6.173l-6.996 5.777c-66.32 32.07-174.695 10.574-196.395 5.785zM270.379 145.066l96.555 96.555-12.067 12.066-96.555-96.539zm-187.5 105.106a670.843 670.843 0 01167.25-19.703 116.207 116.207 0 0014.203 17.183 91.051 91.051 0 0061.113 29.32 42.38 42.38 0 0023.758-6.706c58.395 7.449 105.977 21.972 129.809 39.5-36.532 23.886-125.16 40.101-223.012 40.101-97.406 0-185.855-16.148-222.848-40.11a95.858 95.858 0 019.09-5.972 162.256 162.256 0 0119.258-9.328c7.238-2.984 15.293-5.828 23.945-8.445 8.653-2.621 18.16-5.121 28.043-7.313a495.177 495.177 0 0131.57-5.976c11.094-1.758 22.758-3.25 34.622-4.461a8.536 8.536 0 006.074-13.477 8.538 8.538 0 00-7.781-3.504c-12.168 1.235-24.141 2.782-35.567 4.59s-22.297 3.867-32.648 6.168c-10.352 2.305-20.149 4.875-29.27 7.68-9.12 2.808-17.75 5.82-25.496 9.004A182.211 182.211 0 0033.7 289.047a109.207 109.207 0 00-13.566 9.277 17.09 17.09 0 01-2.5-4.863 133.936 133.936 0 01-.54-3.617c.31-10.508 17.7-26.344 65.786-39.672zm0 0"
            ></path>
            <path
              d="M244.227 272.383a8.04 8.04 0 006.484 0A8.188 8.188 0 00256 264.53a9.442 9.442 0 00-.176-1.62 5.02 5.02 0 00-.504-1.622 6.806 6.806 0 00-.77-1.535l-1.023-1.281a8.937 8.937 0 00-12.117 0c-.367.406-.71.832-1.023 1.28a6.496 6.496 0 00-.77 1.536 5.164 5.164 0 00-.512 1.621 10.766 10.766 0 00-.171 1.621 8.937 8.937 0 002.476 6.059 8.783 8.783 0 002.817 1.793zm0 0M218.625 289.55a8.04 8.04 0 006.484 0 8.195 8.195 0 005.293-7.847 9.315 9.315 0 00-.18-1.613 4.9 4.9 0 00-.503-1.633 6.973 6.973 0 00-.77-1.535l-1.023-1.277a8.929 8.929 0 00-12.117 0c-.368.402-.707.832-1.024 1.277-.32.476-.578.992-.765 1.535a5.107 5.107 0 00-.516 1.633c-.098.531-.156 1.07-.168 1.613a8.948 8.948 0 002.473 6.059 8.815 8.815 0 002.816 1.789zm0 0M269.824 289.55a8.05 8.05 0 006.489 0 8.186 8.186 0 005.289-7.847 9.315 9.315 0 00-.18-1.613 4.9 4.9 0 00-.504-1.633 7.134 7.134 0 00-.766-1.535l-1.023-1.277a8.934 8.934 0 00-12.121 0c-.363.402-.707.832-1.024 1.277-.32.476-.578.992-.765 1.535a5.1 5.1 0 00-.512 1.633c-.102.531-.156 1.07-.172 1.613a8.948 8.948 0 002.473 6.059 8.815 8.815 0 002.816 1.789zm0 0M201.559 315.05a8.04 8.04 0 006.484 0 8.2 8.2 0 005.293-7.85 9.852 9.852 0 00-.18-1.622 4.927 4.927 0 00-.504-1.621 6.806 6.806 0 00-.77-1.535l-1.023-1.281a8.937 8.937 0 00-12.117 0c-.367.406-.707.832-1.023 1.28a6.423 6.423 0 00-.77 1.536 5.234 5.234 0 00-.512 1.621 10.277 10.277 0 00-.167 1.621 8.922 8.922 0 002.472 6.059 8.894 8.894 0 002.817 1.793zm0 0M275.543 309.672c-.367.406-.707.836-1.023 1.281a6.496 6.496 0 00-.77 1.535 5.164 5.164 0 00-.512 1.621 10.277 10.277 0 00-.168 1.621 8.915 8.915 0 002.473 6.06 8.76 8.76 0 002.816 1.792 8.04 8.04 0 006.485 0 8.197 8.197 0 005.293-7.852 9.852 9.852 0 00-.18-1.62 5.05 5.05 0 00-.504-1.622 6.889 6.889 0 00-.77-1.535l-1.023-1.281a8.937 8.937 0 00-12.117 0zm0 0M232.875 330.324a8.894 8.894 0 002.816 1.793 8.05 8.05 0 006.489 0 8.197 8.197 0 005.289-7.851 9.447 9.447 0 00-.18-1.621 4.927 4.927 0 00-.504-1.622 6.96 6.96 0 00-.765-1.535l-1.028-1.281a8.937 8.937 0 00-12.117 0c-.367.406-.707.832-1.023 1.281a6.269 6.269 0 00-.766 1.535 5.034 5.034 0 00-.512 1.622 10.283 10.283 0 00-.172 1.62 8.933 8.933 0 002.473 6.06zm0 0M244.227 306.516a8.04 8.04 0 006.484 0 8.188 8.188 0 005.289-7.852 9.442 9.442 0 00-.176-1.621 5.05 5.05 0 00-.504-1.621 6.806 6.806 0 00-.77-1.535l-1.023-1.282a8.937 8.937 0 00-12.117 0c-.367.407-.71.836-1.023 1.282a6.496 6.496 0 00-.77 1.535 5.164 5.164 0 00-.512 1.621 10.766 10.766 0 00-.171 1.621 8.937 8.937 0 002.476 6.059 8.717 8.717 0 002.817 1.793zm0 0"
            ></path>
          </svg>