  <svg
            style="fill: rgba(23, 80, 67, 0.48)"
            title="Low Sugar"
            width="40"
            class="iconfill Badges_icon__q9qb7"
            viewBox="0 0 512.021 512.021"
            xmlns="http://www.w3.org/2000/svg"
          >
            <path
              d="M496.575 344.027a7.5 7.5 0 007.5-7.5v-40.315c0-11.696-5.404-25.082-17.646-31.061l-90.858-44.373a19.481 19.481 0 00-17.2 0l-90.858 44.373c-7.689 3.755-12.521 10.018-15.362 17.973l-44.183-44.183 6.663 3.254a48.768 48.768 0 0042.762 0l84.727-41.377c6.681-3.263 10.997-10.176 10.997-17.611V77.435c0-12.804-6.134-25.438-17.646-31.061l-39.13-19.11a7.501 7.501 0 00-6.582 13.479l38.768 18.934-92.514 45.181-92.514-45.181 90.495-44.196a4.574 4.574 0 014.037 0l20.277 9.903a7.5 7.5 0 006.582-13.478l-20.277-9.903a19.477 19.477 0 00-17.201 0l-90.858 44.373c-11.423 5.58-17.646 18.138-17.646 31.06v72.445L79.716 90.69c-8.605-8.606-22.537-8.608-31.144 0-8.586 8.586-8.586 22.556 0 31.142l112.185 112.185-27.107-13.238a19.481 19.481 0 00-17.2 0l-90.856 44.373c-11.618 5.673-17.647 18.407-17.647 31.061v105.772c0 7.436 4.317 14.348 10.999 17.611l84.725 41.377a48.768 48.768 0 0042.762 0l84.727-41.378c6.681-3.263 10.997-10.176 10.997-17.611v-86.57l27.711 27.711v58.859c0 7.436 4.317 14.348 10.999 17.611l84.725 41.377c7.988 3.9 17.276 5.697 26.748 4.623l39.969 39.969c8.605 8.609 22.536 8.608 31.143.001 8.585-8.586 8.585-22.556 0-31.142l-27.116-27.117 56.745-27.713c6.681-3.263 10.997-10.176 10.997-17.611v-30.457c0-4.142-3.357-7.5-7.5-7.5s-7.5 3.358-7.5 7.5v30.457a4.629 4.629 0 01-2.58 4.133L425.12 436.09l-30.646-30.646v-68.781l93.977-45.895c.415 1.778.628 3.604.628 5.442v40.315a7.494 7.494 0 007.496 7.502zm-233.064-226.14l93.977-45.895c.415 1.778.628 3.604.628 5.442v105.772a4.629 4.629 0 01-2.58 4.133l-84.726 41.377a33.766 33.766 0 01-7.299 2.571zm21.983 172.883l93.977 45.895v53.781l-94.602-94.602c.026-1.714.237-3.415.625-5.074zM153.906 77.435c0-1.838.213-3.664.629-5.443l93.976 45.896v113.4a33.803 33.803 0 01-7.299-2.571l-45.873-22.403-41.433-41.433zm-36.355 372.63a33.803 33.803 0 01-7.299-2.571l-84.725-41.377a4.63 4.63 0 01-2.581-4.133V296.212c0-1.837.213-3.664.629-5.442l93.976 45.895zM32.537 278.453l90.494-44.196a4.573 4.573 0 014.038 0l66.315 32.387 15.868 15.869-84.202 41.122c-9.885-4.829-82.466-40.275-92.513-45.182zm194.618 123.531a4.629 4.629 0 01-2.58 4.133l-84.726 41.377a33.766 33.766 0 01-7.299 2.571v-113.4l87.918-42.936 6.687 6.686zm145.017 45.51l-84.725-41.377a4.63 4.63 0 01-2.581-4.133v-43.859l90.854 90.854a33.59 33.59 0 01-3.548-1.485zm80.67 37.537c2.737 2.737 2.737 7.191 0 9.929a7.016 7.016 0 01-9.928 0L59.179 111.225c-2.738-2.737-2.738-7.191 0-9.929a7.016 7.016 0 019.929 0l383.734 383.735zm-65.871-161.397l-92.515-45.181 90.495-44.196a4.573 4.573 0 014.038 0l90.496 44.196-92.514 45.181z"
            ></path>
          </svg>