  <svg
            title="Low Fat"
            width="40"
            class="iconfill Badges_icon__q9qb7"
            viewBox="0 0 512 512"
            xmlns="http://www.w3.org/2000/svg"
              style="  fill: rgba(23, 80, 67, 0.48);"
          >
            <path
              d="M464.419 432.871a7.5 7.5 0 00-7.5 7.5c0 31.226-25.404 56.629-56.629 56.629-31.226 0-56.629-25.403-56.629-56.629 0-36.601 41.633-85.062 56.632-101.332 11.039 11.967 36.498 41.379 49.223 70.92a7.498 7.498 0 009.855 3.921 7.499 7.499 0 003.921-9.854c-17.569-40.787-56.069-79.553-57.699-81.184a7.501 7.501 0 00-10.606 0c-2.708 2.709-66.326 66.908-66.326 117.529 0 39.496 32.133 71.629 71.629 71.629s71.629-32.133 71.629-71.629a7.5 7.5 0 00-7.5-7.5z"
            ></path>
            <path
              d="M437.02 74.98C388.667 26.629 324.38 0 256 0S123.333 26.629 74.98 74.98C26.629 123.332 0 187.62 0 256s26.629 132.668 74.98 181.02C123.333 485.371 187.62 512 256 512c22.395 0 44.62-2.896 66.06-8.606a7.499 7.499 0 005.316-9.178c-1.066-4.002-5.178-6.387-9.177-5.316-20.18 5.374-41.107 8.1-62.199 8.1-64.374 0-124.894-25.068-170.413-70.587S15 320.374 15 256 40.068 131.106 85.587 85.587 191.626 15 256 15s124.894 25.068 170.413 70.587S497 191.626 497 256c0 38.305-8.719 74.922-25.916 108.836a7.5 7.5 0 0013.379 6.783C502.735 335.584 512 296.684 512 256c0-68.38-26.629-132.668-74.98-181.02z"
            ></path>
            <path
              d="M222.687 284.996l120.144-72.932v116.85c0 4.143 3.358 7.5 7.5 7.5s7.5-3.357 7.5-7.5V202.958l20.381-12.372h12.549a7.5 7.5 0 007.5-7.5 7.464 7.464 0 00-1.147-3.974l41.222-25.023c16.927 30.166 26.599 64.928 26.599 101.911 0 26.595-4.928 52.498-14.647 76.991a7.5 7.5 0 0013.942 5.533c10.421-26.263 15.705-54.027 15.705-82.524 0-59.815-23.293-116.051-65.589-158.347C372.051 55.357 315.815 32.064 256 32.064c-34.091 0-66.835 7.471-97.322 22.205a7.5 7.5 0 006.528 13.506C193.64 54.032 224.188 47.064 256 47.064c72.868 0 137.13 37.504 174.532 94.215l-56.515 34.307h-63.79c-4.142 0-7.5 3.357-7.5 7.5s3.358 7.5 7.5 7.5h32.605v3.93l-58.958 35.79-18.047-47.821a10.768 10.768 0 00-10.074-6.899h-.011a10.768 10.768 0 00-9.99 6.714c-.023.057-.046.113-.067.171l-35.182 92.374-75.062 45.565v-58.281h46.511c4.142 0 7.5-3.357 7.5-7.5s-3.358-7.5-7.5-7.5h-46.511v-56.01h51.172c4.142 0 7.5-3.357 7.5-7.5s-3.358-7.5-7.5-7.5h-58.672a7.5 7.5 0 00-7.5 7.5v144.762c0 .369.036.728.087 1.082l-46.864 28.448c-16.928-30.166-26.6-64.928-26.6-101.911 0-69.124 34.152-133.689 91.357-172.712a7.5 7.5 0 001.969-10.422 7.497 7.497 0 00-10.422-1.969C68.664 112.716 32.064 181.913 32.064 256c0 59.815 23.293 116.051 65.589 158.347 42.295 42.296 98.531 65.589 158.346 65.589 16 0 31.975-1.698 47.482-5.048a7.5 7.5 0 00-3.167-14.662 210.294 210.294 0 01-44.315 4.71c-72.868 0-137.13-37.504-174.532-94.215l120.342-73.052-10.884 28.576a7.5 7.5 0 0014.017 5.338l11.798-30.977h77.629l11.682 30.956a7.504 7.504 0 007.019 4.854 7.5 7.5 0 007.015-10.15l-21.619-57.285a7.499 7.499 0 00-9.665-4.368 7.5 7.5 0 00-4.369 9.665l4.275 11.329h-66.255zm33.047-86.769l15.094 39.998-39.449 23.947z"
            ></path>
          </svg>