 <svg
            style="fill: rgba(23, 80, 67, 0.48)"
            class="muscle_card__icon icon"
            xmlns="http://www.w3.org/2000/svg"
            viewBox="0 0 135 135"
          >
            <filter
              filterUnits="userSpaceOnUse"
              id="prefix__a"
              x="1.5"
              y="30"
              width="94"
              height="102"
            >
              <feOffset in="SourceAlpha" dy="7"></feOffset>
              <feGaussianBlur result="blurOut"></feGaussianBlur>
              <feFlood flood-color="#000" result="floodOut"></feFlood>
              <feComposite
                operator="atop"
                in="floodOut"
                in2="blurOut"
              ></feComposite>
              <feComponentTransfer>
                <feFuncA type="linear" slope="0.12"></feFuncA>
              </feComponentTransfer>
              <feMerge>
                <feMergeNode></feMergeNode>
                <feMergeNode in="SourceGraphic"></feMergeNode>
              </feMerge>
            </filter>
            <filter
              filterUnits="userSpaceOnUse"
              id="prefix__b"
              x="-17.5"
              y="-14"
              width="164"
              height="178"
            >
              <feOffset in="SourceAlpha" dy="7"></feOffset>
              <feGaussianBlur result="blurOut"></feGaussianBlur>
              <feFlood flood-color="#000" result="floodOut"></feFlood>
              <feComposite
                operator="atop"
                in="floodOut"
                in2="blurOut"
              ></feComposite>
              <feComponentTransfer>
                <feFuncA type="linear" slope="0.1"></feFuncA>
              </feComponentTransfer>
              <feMerge>
                <feMergeNode></feMergeNode>
                <feMergeNode in="SourceGraphic"></feMergeNode>
              </feMerge>
            </filter>
            <g>
              <path
                fill-rule="evenodd"
                stroke-width="3"
                stroke="#547480"
                fill="#FFF"
                d="M32.594 119.322C13.547 109.224 1.767 92.165 6.569 70.307c4.326-19.69 22.161-39.469 43.856-35.858 16.721 2.783 19.246 15.801 24.596 23.316 8.355 11.736 20.525 18.46 15.151 36.712-10.245 34.797-43.23 32.452-57.578 24.845z"
              ></path>
            </g>
            <path
              fill-rule="evenodd"
              stroke-width="3"
              stroke="#547480"
              fill="#FFE88A"
              d="M41.943 59.008c10.937-.011 19.793 8.806 19.782 19.694-.012 10.888-8.887 19.724-19.823 19.736-10.937.011-19.793-8.806-19.782-19.694.011-10.888 8.887-19.724 19.823-19.736z"
            ></path>
            <path
              stroke="#FFF"
              stroke-width="3"
              stroke-linecap="round"
              fill="none"
              d="M28.683 79.604c-.935-4.299 1.817-10.853 7.818-12.187"
            ></path>
            <path
              fill-rule="evenodd"
              fill="#FFF"
              d="M40.684 66.513a1.65 1.65 0 011.303-1.927 1.633 1.633 0 011.918 1.298c.17.89-.413 1.753-1.303 1.926a1.631 1.631 0 01-1.918-1.297z"
            ></path>
            <g fill-rule="evenodd">
              <path
                stroke-width="3"
                stroke="#5A737F"
                fill="var(--programs-card-muscle-btn)"
                d="M85.192 71.097c2.982 5.576 12.289 14.524 17.991 21.561.541.667.013 1.651-.841 1.58-12.666-1.052-29.32-8.339-40.951-19.972-10.029-10.033-16.858-21.956-19.228-33.57-2.192-10.742-.243-19.813 5.485-25.544 5.729-5.73 14.797-7.678 25.535-5.486 11.611 2.37 23.53 9.201 33.56 19.234 11.631 11.636 18.917 28.297 19.967 40.963.071.855-.913 1.383-1.58.843-7.036-5.705-15.98-15.016-21.555-17.997-3.713-1.986-6.987-3.272-9.729-3.821-5.34-1.069-8.447.694-10.113 2.361-1.666 1.666-3.428 4.775-2.36 10.116.549 2.743 1.833 6.017 3.819 9.732z"
              ></path>
              <path
                fill="#FFF"
                d="M67.861 35.16c2.066-2.066 5.407-2.074 7.463-.017 2.056 2.056 2.048 5.398-.018 7.464-2.065 2.066-5.407 2.074-7.462.018-2.056-2.057-2.048-5.399.017-7.465z"
              ></path>
              <path
                fill="#557480"
                d="M123.792 77.271a1.34 1.34 0 001.558-.243l2.414-2.415c2.779-2.779 3.736-6.802 2.497-10.497l-3.47-10.46-6.033-13.381c-.902-2.698-1.88-4.773-4.031-6.93L95.291 12.704c-4.813-4.838-11.073-7.928-15.484-9.669-.354-.119-8.331-2.769-12.9-2.769h-.002l-.161.022C57.147 0 48.439 3.322 42.129 9.633 35.817 15.946 32.5 24.65 32.791 34.14l-.019.238c.354 6.736 2.659 12.677 2.756 12.927 1.742 4.412 4.832 10.68 9.664 15.488l20.654 21.456c2.145 2.141 4.221 3.121 6.874 4.006l13.483 6.075c.006 0 2.37.819 4.567 1.652l.236-.062 5.596 1.856c3.64 1.224 7.751.254 10.473-2.47l2.44-2.44a1.336 1.336 0 00.252-1.539L98.49 66.001l25.302 11.27zm.277-23.351l3.66 11.037c.904 2.696.185 5.741-1.831 7.757l-1.74 1.741-27.021-12.15.534-.856a19.818 19.818 0 012.805-3.527c.427-.429.888-.85 1.367-1.248 4.784-3.93 14.763-4.409 21.73-2.864l.496.11zm-7.247-15.816l.36.091.19.32c.401.677.496 1.134.595 1.618.056.266.115.558.242.936l5.026 9.905-1.59-.223c-8.443-1.186-18.103 1.081-21.487 3.861a22.594 22.594 0 00-4.535 5.093l-.606.937-8.051-8.052.067-.446c.28-1.889 1.324-6.676 4.95-10.303a14.871 14.871 0 012.253-1.85c8.144-5.437 22-2.034 22.586-1.887zm-16.734-16.818l14.373 13.5-2.634-.296c-5.853-.659-13.934-.143-19.067 3.285a17.475 17.475 0 00-2.664 2.184c-2.899 2.9-4.345 6.398-5.046 8.822l-.425 1.468-6.659-6.661.354-.6c1.697-2.886 1.423-6.565-.683-9.155l-.39-.48.313-.538a27.653 27.653 0 014.279-5.587c4.892-4.893 14.907-5.769 17.861-5.922l.388-.02zM84.94 8.549l.767.475c2.62 1.619 5.589 3.455 7.691 5.561l4.167 4.167-1.79.253c-5.034.71-11.863 2.385-15.815 6.336a30.334 30.334 0 00-4.471 5.741l-.392.654-.709-.277a8.018 8.018 0 00-7.042.556l-.599.353-4.987-4.988.085-.464c.334-1.803 1.722-6.611 7.4-12.289 5.218-5.219 11.91-6.047 15.436-6.076l.259-.002zm-9.743 34.155v.001a5.349 5.349 0 01-3.792 1.575h-.012a5.3 5.3 0 01-3.776-1.561c-2.086-2.086-2.079-5.486.014-7.58a5.348 5.348 0 013.792-1.576h.012c1.429 0 2.77.555 3.776 1.561 2.082 2.087 2.075 5.487-.014 7.58zM45.71 9.951C54.177 2.749 66.165.942 77.778 5.115l2.72.979-2.803.735a22.954 22.954 0 00-10.334 5.916c-3.408 3.408-5.837 6.952-7.22 10.532-.062.162-.122.325-.179.484l-.48 1.341-14.516-14.518.744-.633zm-7.12 38.056l-.977-2.721c-4.174-11.614-2.367-23.604 4.834-32.071l.633-.744 14.516 14.518-1.341.48a23.37 23.37 0 00-.483.179c-3.578 1.381-7.122 3.811-10.532 7.221a22.955 22.955 0 00-5.913 10.333l-.737 2.805zm12.659 17.07l-4.169-4.169c-2.11-2.107-3.944-5.076-5.563-7.696l-.471-.765.002-.257c.029-3.526.857-10.219 6.075-15.438 5.655-5.656 10.477-7.056 12.288-7.395l.465-.087 4.985 4.985-.353.599a8.022 8.022 0 00-.556 7.041l.277.709-.653.393a30.297 30.297 0 00-5.74 4.473c-3.951 3.95-5.626 10.782-6.335 15.816l-.252 1.791zm2.532 2.523l.019-.387c.154-2.956 1.034-12.975 5.92-17.862a27.665 27.665 0 015.589-4.283l.537-.313.48.391c2.59 2.107 6.269 2.381 9.155.683l.599-.353 6.659 6.66-1.467.424c-2.42.698-5.914 2.141-8.82 5.047a17.569 17.569 0 00-2.185 2.664c-3.427 5.132-3.944 13.216-3.285 19.07l.298 2.635L53.781 67.6zm19.707 18.09c-.303-.094-.595-.153-.861-.208-.485-.101-.943-.195-1.621-.597l-.319-.188-.091-.361c-.147-.586-3.549-14.448 1.886-22.589a14.748 14.748 0 011.832-2.232c3.61-3.611 8.419-4.677 10.32-4.968l.448-.068 8.044 8.046-.946.603a23.656 23.656 0 00-5.179 4.482c-2.817 3.277-5.371 12.842-4.535 21.327l.153 1.539-9.131-4.786zm33.454 5.983l-1.724 1.725a7.675 7.675 0 01-5.408 2.23 7.421 7.421 0 01-2.367-.384l-11.952-3.966-.088-.527c-1.572-9.129 1.155-19.045 4.689-22.579a20.569 20.569 0 013.844-3.021l.853-.517 12.153 27.039z"
              ></path>
            </g>
          </svg>